<svg width="32" height="32" viewBox="0 0 32 32" fill="none" xmlns="http://www.w3.org/2000/svg">
<rect width="32" height="32" rx="4" fill="white"/>
<g clip-path="url(#clip0_76_2432)">
<path d="M6.51424 15.037H5.16064V9.68075H6.51424V8.34302H7.86783V7H13.2928V8.34302H14.6464V11.0185H13.2928V15.037H14.6464V19.0554H13.2928V24.4169H11.9339V23.0739H10.5803V21.7362H9.22671V19.0554H7.86783V17.7177H6.51424V15.037Z" fill="#DA3D23"/>
<path d="M14.6465 12.3615H16.0001V9.68075H17.3537V8.34302H18.7073V7H24.1322V8.34302H25.4858V9.68075H26.8394V15.037H25.4858V17.7177H24.1322V20.3985H22.7733V21.7362H21.4197V23.0739H20.0661V24.4169H18.7073V25.7547H16.0001V27.0924H14.6465V24.4169H16.0001V23.0739H14.6465V20.3985H16.0001V17.7177H17.3537V16.38H16.0001V13.6992H14.6465V12.3615Z" fill="#DA3D23"/>
<path d="M7.86775 11.0184V13.6991H9.22664V15.0369H10.5802V17.7176H11.9338V21.7361H10.5802V19.0554H9.2425V17.7176H9.22664V16.3746H7.86775V15.0369H6.51416V9.68067H7.86775V8.34293H9.22664V8.33765H13.2874V9.68067H10.5802V11.0184H7.86775Z" fill="#E24C33"/>
<path d="M17.3536 12.3611H16V13.6988H17.3536V12.3611Z" fill="#E24C33"/>
<path d="M17.3536 20.3928H16V23.0736H17.3536V20.3928Z" fill="#E24C33"/>
<path d="M18.7071 9.68066H17.3535V12.3614H18.7071V9.68066Z" fill="#E24C33"/>
<path d="M18.7071 13.699H17.3535V20.3929H18.7071V13.699Z" fill="#E24C33"/>
<path d="M18.7281 23.0737H17.3745V24.4115H18.7281V23.0737Z" fill="#E24C33"/>
<path d="M20.0659 8.34253H18.707V9.68026H20.0659V8.34253Z" fill="#E24C33"/>
<path d="M20.0661 23.0738H17.3589V20.3931H18.7125V13.6991H17.3589V12.3561H18.7125V9.68067H20.0661V8.33765H21.4197V8.34293H22.7733L22.7786 8.33765H24.1321V9.68067H25.4857V15.0369H24.1321V17.7176H22.7786V20.3931H21.4197V21.7361H20.0661V23.0738Z" fill="#F45737"/>
<path d="M23.4185 9.68066H22.0649V11.0184H23.4185V9.68066Z" fill="white"/>
<path d="M24.7769 11.0183H23.418V13.6991H24.7769V11.0183Z" fill="white"/>
<path d="M7.87345 12.3614H7.86816V11.0184H10.5806V9.68066H13.2931V11.0184H11.9395V15.0369H13.2931V19.0554H11.9395V17.7176H10.5806V15.0369H9.22705V13.6991H7.87345V12.3614Z" fill="#F45737"/>
</g>
<defs>
<clipPath id="clip0_76_2432">
<rect width="21.6787" height="20.0924" fill="white" transform="translate(5.16064 7)"/>
</clipPath>
</defs>
</svg>
