<svg width="36" height="32" viewBox="0 0 36 32" fill="none" xmlns="http://www.w3.org/2000/svg">
<g clip-path="url(#clip0_77_2460)">
<path d="M2.89309 12.8H0.737305V4.26947H2.89309V2.13895H5.04888V0H13.6889V2.13895H15.8447V6.4H13.6889V12.8H15.8447V19.2H13.6889V27.7389H11.5247V25.6H9.36888V23.4695H7.21309V19.2H5.04888V17.0695H2.89309V12.8Z" fill="#DA3D23"/>
<path d="M15.8438 8.53895H17.9995V4.26947H20.1553V2.13895H22.3111V0H30.9511V2.13895H33.1069V4.26947H35.2627V12.8H33.1069V17.0695H30.9511V21.3389H28.7869V23.4695H26.6311V25.6H24.4753V27.7389H22.3111V29.8695H17.9995V32H15.8438V27.7389H17.9995V25.6H15.8438V21.3389H17.9995V17.0695H20.1553V14.9389H17.9995V10.6695H15.8438V8.53895Z" fill="#DA3D23"/>
<path d="M5.04934 6.39984V10.6693H7.21355V12.7998H9.36934V17.0693H11.5251V23.4693H9.36934V19.1998H7.23882V17.0693H7.21355V14.9304H5.04934V12.7998H2.89355V4.26932H5.04934V2.13879H7.21355V2.13037H13.6809V4.26932H9.36934V6.39984H5.04934Z" fill="#E24C33"/>
<path d="M20.1558 8.53857H18V10.6691H20.1558V8.53857Z" fill="#E24C33"/>
<path d="M20.1558 21.3301H18V25.5996H20.1558V21.3301Z" fill="#E24C33"/>
<path d="M22.312 4.26904H20.1562V8.53852H22.312V4.26904Z" fill="#E24C33"/>
<path d="M22.312 10.6694H20.1562V21.3305H22.312V10.6694Z" fill="#E24C33"/>
<path d="M22.3462 25.5996H20.1904V27.7301H22.3462V25.5996Z" fill="#E24C33"/>
<path d="M24.4757 2.13867H22.3115V4.2692H24.4757V2.13867Z" fill="#E24C33"/>
<path d="M24.4756 25.5998H20.1641V21.3304H22.3199V10.6693H20.1641V8.53037H22.3199V4.26932H24.4756V2.13037H26.6314V2.13879H28.7872L28.7956 2.13037H30.9514V4.26932H33.1072V12.7998H30.9514V17.0693H28.7956V21.3304H26.6314V23.4693H24.4756V25.5998Z" fill="#F45737"/>
<path d="M29.815 4.26904H27.6592V6.39957H29.815V4.26904Z" fill="white"/>
<path d="M31.9796 6.3999H29.8154V10.6694H31.9796V6.3999Z" fill="white"/>
<path d="M5.05823 8.53852H5.0498V6.39957H9.3698V4.26904H13.6898V6.39957H11.534V12.7996H13.6898V19.1996H11.534V17.069H9.3698V12.7996H7.21402V10.669H5.05823V8.53852Z" fill="#F45737"/>
</g>
<defs>
<clipPath id="clip0_77_2460">
<rect width="34.5263" height="32" fill="white" transform="translate(0.737305)"/>
</clipPath>
</defs>
</svg>
