<svg width="29" height="24" viewBox="0 0 29 24" fill="none" xmlns="http://www.w3.org/2000/svg">
<path fill-rule="evenodd" clip-rule="evenodd" d="M13.7934 2.14942C14.7852 2.14942 15.6887 2.72118 16.1158 3.61765L19.5181 10.7753C19.5181 10.7753 19.5181 10.7788 19.5146 10.7788C19.5146 10.7788 19.5146 10.7753 19.5181 10.7753C20.3158 9.79765 20.8946 8.64706 21.1417 7.41177C21.4205 6.01765 22.7758 5.11765 24.1699 5.39295C24.5013 5.45916 24.8165 5.59002 25.0973 5.77805C25.3781 5.96608 25.6192 6.20761 25.8067 6.48882C25.9941 6.77004 26.1244 7.08543 26.1899 7.41699C26.2555 7.74855 26.2551 8.08978 26.1887 8.42118C25.6169 11.2765 24.0217 13.8282 21.8617 15.7024L23.097 18.3C23.7817 19.74 23.0652 21.5012 21.5475 21.9529L21.5017 21.9671C21.2758 22.0306 21.0428 22.0624 20.817 22.0624C19.8534 22.0624 18.9322 21.5188 18.4911 20.5941L17.3934 18.2859L15.1593 13.5847L14.0617 11.2765C14.0378 11.2265 14.0003 11.1843 13.9534 11.1547C13.9066 11.1252 13.8523 11.1095 13.797 11.1095C13.7416 11.1095 13.6873 11.1252 13.6405 11.1547C13.5936 11.1843 13.5561 11.2265 13.5322 11.2765L12.4099 13.6341C10.6981 13.2706 8.97577 12.2118 8.00166 10.9235L11.4711 3.62471C11.6776 3.18326 12.0058 2.80993 12.4172 2.5486C12.8286 2.28726 13.306 2.14878 13.7934 2.14942ZM4.06989 8.4953C5.38636 7.96236 6.88636 8.59765 7.4193 9.91765C7.55695 10.26 7.7546 10.5953 7.99813 10.9165L8.00166 10.92L8.11813 11.0682C8.12872 11.0824 8.1393 11.0929 8.14989 11.1071L8.18166 11.1459C8.1993 11.1635 8.21342 11.1847 8.23107 11.2024C8.2346 11.2059 8.23813 11.2094 8.23813 11.2129L8.23107 11.2024C8.29813 11.2835 8.37225 11.3612 8.44636 11.4388C8.44989 11.4424 8.44989 11.4459 8.45342 11.4459C8.69695 11.7 8.96872 11.94 9.26166 12.1624C9.3993 12.2682 9.54048 12.3671 9.68519 12.4659C9.69931 12.4729 9.70989 12.4835 9.72401 12.4906C10.5393 13.0271 11.4746 13.4294 12.4064 13.6271C12.8017 13.7118 13.197 13.7577 13.5817 13.7612H13.6311C14.1428 13.7612 14.6546 13.6977 15.1558 13.5777L17.3899 18.2788C16.1828 18.6847 14.9158 18.9071 13.6311 18.9071C12.4734 18.9071 11.3017 18.7059 10.1652 18.3424L9.09577 20.5906C8.94644 20.9046 8.73498 21.1851 8.47418 21.415C8.21337 21.645 7.90865 21.8197 7.57842 21.9286C7.24819 22.0375 6.89931 22.0782 6.55287 22.0484C6.20644 22.0187 5.86964 21.9189 5.56283 21.7553C4.3346 21.1024 3.88636 19.5635 4.48283 18.3071L5.6546 15.8435C4.33107 14.7247 3.27578 13.3659 2.66519 11.8906L2.64754 11.8447C2.11813 10.5282 2.75342 9.02824 4.06989 8.4953Z" fill="black"/>
<path fill-rule="evenodd" clip-rule="evenodd" d="M13.7934 2.14942C14.7852 2.14942 15.6887 2.72118 16.1158 3.61765L19.5181 10.7753C19.5181 10.7753 19.5181 10.7788 19.5146 10.7788C19.5146 10.7788 19.5146 10.7753 19.5181 10.7753C20.3158 9.79765 20.8946 8.64706 21.1417 7.41177C21.4205 6.01765 22.7758 5.11765 24.1699 5.39295C24.5013 5.45916 24.8165 5.59002 25.0973 5.77805C25.3781 5.96608 25.6192 6.20761 25.8067 6.48882C25.9941 6.77004 26.1244 7.08543 26.1899 7.41699C26.2555 7.74855 26.2551 8.08978 26.1887 8.42118C25.6169 11.2765 24.0217 13.8282 21.8617 15.7024L23.097 18.3C23.7817 19.74 23.0652 21.5012 21.5475 21.9529L21.5017 21.9671C21.2758 22.0306 21.0428 22.0624 20.817 22.0624C19.8534 22.0624 18.9322 21.5188 18.4911 20.5941L17.3934 18.2859L15.1593 13.5847L14.0617 11.2765C14.0378 11.2265 14.0003 11.1843 13.9534 11.1547C13.9066 11.1252 13.8523 11.1095 13.797 11.1095C13.7416 11.1095 13.6873 11.1252 13.6405 11.1547C13.5936 11.1843 13.5561 11.2265 13.5322 11.2765L12.4099 13.6341C10.6981 13.2706 8.97577 12.2118 8.00166 10.9235L11.4711 3.62471C11.6776 3.18326 12.0058 2.80993 12.4172 2.5486C12.8286 2.28726 13.306 2.14878 13.7934 2.14942ZM4.06989 8.4953C5.38636 7.96236 6.88636 8.59765 7.4193 9.91765C7.55695 10.26 7.7546 10.5953 7.99813 10.9165L8.00166 10.92L8.11813 11.0682C8.12872 11.0824 8.1393 11.0929 8.14989 11.1071L8.18166 11.1459C8.1993 11.1635 8.21342 11.1847 8.23107 11.2024C8.2346 11.2059 8.23813 11.2094 8.23813 11.2129L8.23107 11.2024C8.29813 11.2835 8.37225 11.3612 8.44636 11.4388C8.44989 11.4424 8.44989 11.4459 8.45342 11.4459C8.69695 11.7 8.96872 11.94 9.26166 12.1624C9.3993 12.2682 9.54048 12.3671 9.68519 12.4659C9.69931 12.4729 9.70989 12.4835 9.72401 12.4906C10.5393 13.0271 11.4746 13.4294 12.4064 13.6271C12.8017 13.7118 13.197 13.7577 13.5817 13.7612H13.6311C14.1428 13.7612 14.6546 13.6977 15.1558 13.5777L17.3899 18.2788C16.1828 18.6847 14.9158 18.9071 13.6311 18.9071C12.4734 18.9071 11.3017 18.7059 10.1652 18.3424L9.09577 20.5906C8.94644 20.9046 8.73498 21.1851 8.47418 21.415C8.21337 21.645 7.90865 21.8197 7.57842 21.9286C7.24819 22.0375 6.89931 22.0782 6.55287 22.0484C6.20644 22.0187 5.86964 21.9189 5.56283 21.7553C4.3346 21.1024 3.88636 19.5635 4.48283 18.3071L5.6546 15.8435C4.33107 14.7247 3.27578 13.3659 2.66519 11.8906L2.64754 11.8447C2.11813 10.5282 2.75342 9.02824 4.06989 8.4953Z" fill="white"/>
<path d="M19.5181 10.7753L16.1158 3.61765C15.6887 2.72118 14.7852 2.14942 13.7934 2.14942C13.306 2.14878 12.8286 2.28726 12.4172 2.5486C12.0058 2.80993 11.6776 3.18326 11.4711 3.62471L8.00166 10.9235C8.97577 12.2118 10.6981 13.2706 12.4099 13.6341L13.5322 11.2765C13.5561 11.2265 13.5936 11.1843 13.6405 11.1547C13.6873 11.1252 13.7416 11.1095 13.797 11.1095C13.8523 11.1095 13.9066 11.1252 13.9534 11.1547C14.0003 11.1843 14.0378 11.2265 14.0617 11.2765L15.1593 13.5847M19.5181 10.7753C19.5181 10.7753 19.5181 10.7788 19.5146 10.7788C19.5146 10.7788 19.5146 10.7753 19.5181 10.7753ZM19.5181 10.7753C20.3158 9.79765 20.8946 8.64706 21.1417 7.41177C21.4205 6.01765 22.7758 5.11765 24.1699 5.39295C24.5013 5.45916 24.8165 5.59002 25.0973 5.77805C25.3781 5.96608 25.6192 6.20761 25.8067 6.48882C25.9941 6.77004 26.1244 7.08543 26.1899 7.41699C26.2555 7.74855 26.2551 8.08978 26.1887 8.42118C25.6169 11.2765 24.0217 13.8282 21.8617 15.7024L23.097 18.3C23.7817 19.74 23.0652 21.5012 21.5475 21.9529L21.5017 21.9671C21.2758 22.0306 21.0428 22.0624 20.817 22.0624C19.8534 22.0624 18.9322 21.5188 18.4911 20.5941L17.3934 18.2859L15.1593 13.5847M15.1593 13.5847H15.1664M8.23107 11.2024C8.21342 11.1847 8.1993 11.1635 8.18166 11.1459L8.14989 11.1071C8.1393 11.0929 8.12872 11.0824 8.11813 11.0682L8.00166 10.92L7.99813 10.9165C7.7546 10.5953 7.55695 10.26 7.4193 9.91765C6.88636 8.59765 5.38636 7.96236 4.06989 8.4953C2.75342 9.02824 2.11813 10.5282 2.64754 11.8447L2.66519 11.8906C3.27578 13.3659 4.33107 14.7247 5.6546 15.8435L4.48283 18.3071C3.88636 19.5635 4.3346 21.1024 5.56283 21.7553C5.86964 21.9189 6.20644 22.0187 6.55287 22.0484C6.89931 22.0782 7.24819 22.0375 7.57842 21.9286C7.90865 21.8197 8.21337 21.645 8.47418 21.415C8.73498 21.1851 8.94644 20.9046 9.09577 20.5906L10.1652 18.3424C11.3017 18.7059 12.4734 18.9071 13.6311 18.9071C14.9158 18.9071 16.1828 18.6847 17.3899 18.2788L15.1558 13.5777C14.6546 13.6977 14.1428 13.7612 13.6311 13.7612H13.5817C13.197 13.7577 12.8017 13.7118 12.4064 13.6271C11.4746 13.4294 10.5393 13.0271 9.72401 12.4906C9.70989 12.4835 9.69931 12.4729 9.68519 12.4659C9.54048 12.3671 9.3993 12.2682 9.26166 12.1624C8.96872 11.94 8.69695 11.7 8.45342 11.4459C8.44989 11.4459 8.44989 11.4424 8.44636 11.4388C8.37225 11.3612 8.29813 11.2835 8.23107 11.2024ZM8.23107 11.2024C8.2346 11.2059 8.23813 11.2094 8.23813 11.2129L8.23107 11.2024Z" stroke="white" stroke-width="2.42471" stroke-linejoin="round"/>
<path fill-rule="evenodd" clip-rule="evenodd" d="M10.1649 18.3424L12.4061 13.6271C10.6943 13.2636 8.97195 12.2047 7.99783 10.9165L5.6543 15.8436C6.95665 16.9483 8.52018 17.8165 10.1649 18.3424Z" fill="#1A007F"/>
<path fill-rule="evenodd" clip-rule="evenodd" d="M19.5176 10.7754C18.3917 12.1554 16.8282 13.1789 15.1553 13.5777L17.3894 18.2789C19.02 17.7283 20.5447 16.8389 21.8612 15.6989L19.5176 10.7754Z" fill="#4E000A"/>
<path fill-rule="evenodd" clip-rule="evenodd" d="M5.6544 15.8433L4.48264 18.3068C3.88617 19.5597 4.3344 21.1021 5.56264 21.755C6.86499 22.4468 8.46734 21.9068 9.09558 20.5903L10.165 18.3421C8.51357 17.8097 6.98156 16.961 5.6544 15.8433Z" fill="#1A007F"/>
<path fill-rule="evenodd" clip-rule="evenodd" d="M24.1693 5.39626C23.8379 5.32991 23.4967 5.3295 23.1652 5.39505C22.8336 5.46061 22.5182 5.59084 22.237 5.77831C21.9558 5.96579 21.7142 6.20684 21.5262 6.48768C21.3382 6.76852 21.2073 7.08366 21.1411 7.41509C20.894 8.65039 20.3152 9.80097 19.5176 10.7786L21.8576 15.7057C24.0176 13.8316 25.6129 11.2798 26.1846 8.4245C26.4635 7.02686 25.5599 5.67156 24.1693 5.39626Z" fill="#FF9396"/>
<path fill-rule="evenodd" clip-rule="evenodd" d="M15.1558 13.5775C14.6546 13.6975 14.1428 13.7611 13.6311 13.7611C13.2322 13.7611 12.8193 13.7152 12.4064 13.627C10.6946 13.2634 8.97225 12.2046 7.99813 10.9164C7.7546 10.5952 7.55695 10.2599 7.4193 9.91755C6.88636 8.60108 5.38636 7.96578 4.06989 8.4952C2.75342 9.02814 2.11813 10.5281 2.64754 11.8446C3.25107 13.3411 4.31695 14.714 5.6546 15.8434C6.98048 16.9611 8.51132 17.8098 10.1617 18.3423C11.2946 18.7058 12.4699 18.907 13.6275 18.907C14.9122 18.907 16.1793 18.6846 17.3864 18.2787L15.1558 13.5775Z" fill="#002DC8"/>
<path fill-rule="evenodd" clip-rule="evenodd" d="M23.0927 18.2965L21.8574 15.6988L19.5174 10.7753L19.5139 10.7788C19.5139 10.7788 19.5139 10.7753 19.5174 10.7753L16.1151 3.61765C15.9062 3.17852 15.5773 2.80755 15.1662 2.5477C14.7552 2.28785 14.279 2.14976 13.7927 2.14941C12.801 2.14941 11.8974 2.72118 11.4704 3.61765L8.00098 10.9165C8.97509 12.2047 10.6974 13.2635 12.4092 13.6271L13.5316 11.2694C13.6374 11.0471 13.9551 11.0471 14.061 11.2694L15.1586 13.5777L17.3927 18.2788L18.4904 20.5871C18.6991 21.027 19.0285 21.3987 19.4403 21.6586C19.8521 21.9186 20.3293 22.0561 20.8163 22.0553C21.0457 22.0553 21.2751 22.0235 21.501 21.96C23.0504 21.5329 23.7845 19.7506 23.0927 18.2965Z" fill="#FF536A"/>
<path fill-rule="evenodd" clip-rule="evenodd" d="M10.1649 18.3424L12.4061 13.6271C10.6943 13.2636 8.97194 12.2047 7.99783 10.9165L5.6543 15.8436C6.95665 16.9483 8.52018 17.8165 10.1649 18.3424Z" fill="#1A007F"/>
<path fill-rule="evenodd" clip-rule="evenodd" d="M19.5176 10.7754C18.3917 12.1554 16.8282 13.1789 15.1553 13.5777L17.3894 18.2789C19.02 17.7283 20.5447 16.8389 21.8612 15.6989L19.5176 10.7754Z" fill="#4E000A"/>
<path fill-rule="evenodd" clip-rule="evenodd" d="M5.6544 15.8433L4.48264 18.3068C3.88617 19.5597 4.3344 21.1021 5.56264 21.755C6.86499 22.4468 8.46734 21.9068 9.09558 20.5903L10.165 18.3421C8.51357 17.8097 6.98156 16.961 5.6544 15.8433Z" fill="#1A007F"/>
<path fill-rule="evenodd" clip-rule="evenodd" d="M24.1693 5.39627C23.8379 5.32991 23.4967 5.3295 23.1652 5.39505C22.8336 5.4606 22.5182 5.59084 22.237 5.77832C21.9558 5.96579 21.7142 6.20684 21.5262 6.48768C21.3382 6.76852 21.2073 7.08366 21.1411 7.41509C20.894 8.65038 20.3152 9.80097 19.5176 10.7786L21.8576 15.7057C24.0176 13.8316 25.6129 11.2798 26.1846 8.4245C26.4635 7.02686 25.5599 5.67156 24.1693 5.39627Z" fill="#FF9396"/>
<path fill-rule="evenodd" clip-rule="evenodd" d="M15.1558 13.5775C14.6546 13.6975 14.1428 13.7611 13.6311 13.7611C13.2322 13.7611 12.8193 13.7152 12.4064 13.627C10.6946 13.2634 8.97224 12.2046 7.99813 10.9164C7.7546 10.5952 7.55695 10.2599 7.4193 9.91755C6.88636 8.60108 5.38636 7.96578 4.06989 8.4952C2.75342 9.02814 2.11813 10.5281 2.64754 11.8446C3.25107 13.3411 4.31695 14.714 5.6546 15.8434C6.98048 16.9611 8.51132 17.8098 10.1617 18.3423C11.2946 18.7058 12.4699 18.907 13.6275 18.907C14.9122 18.907 16.1793 18.6846 17.3864 18.2787L15.1558 13.5775Z" fill="#002DC8"/>
<path fill-rule="evenodd" clip-rule="evenodd" d="M23.0927 18.2965L21.8574 15.6988L19.5174 10.7753L19.5139 10.7788C19.5139 10.7788 19.5139 10.7753 19.5174 10.7753L16.1151 3.61765C15.9062 3.17852 15.5773 2.80755 15.1662 2.5477C14.7552 2.28785 14.279 2.14976 13.7927 2.14941C12.801 2.14941 11.8974 2.72118 11.4704 3.61765L8.00098 10.9165C8.97509 12.2047 10.6974 13.2635 12.4092 13.6271L13.5316 11.2694C13.6374 11.0471 13.9551 11.0471 14.061 11.2694L15.1586 13.5777L17.3927 18.2788L18.4904 20.5871C18.6991 21.027 19.0285 21.3987 19.4403 21.6586C19.8521 21.9186 20.3293 22.0561 20.8163 22.0553C21.0457 22.0553 21.2751 22.0235 21.501 21.96C23.0504 21.5329 23.7845 19.7506 23.0927 18.2965Z" fill="#FF536A"/>
</svg>
