<svg width="21" height="24" viewBox="0 0 21 24" fill="none" xmlns="http://www.w3.org/2000/svg">
<g clip-path="url(#clip0_90_2033)">
<path d="M20.5813 7.74713L19.8428 5.74154L20.3564 4.59021C20.3886 4.51758 20.3982 4.4369 20.3838 4.35873C20.3695 4.28056 20.3318 4.20856 20.2758 4.15217L18.8795 2.7407C18.5797 2.43654 18.1997 2.22378 17.7837 2.12721C17.3678 2.03065 16.9329 2.05424 16.5298 2.19525L16.1388 2.33119L14.0056 0.020139L10.3871 0H10.3636L6.72169 0.0285312L4.59022 2.35804L4.21092 2.22378C3.80522 2.0811 3.36723 2.05711 2.94837 2.15462C2.52951 2.25213 2.14715 2.46708 1.84617 2.77427L0.424628 4.21259C0.380014 4.25754 0.350048 4.31495 0.338666 4.37725C0.327283 4.43956 0.335018 4.50385 0.360853 4.56168L0.896239 5.75664L0.161133 7.76056L0.636098 9.56811L2.80281 17.8053C3.05242 18.7542 3.62668 19.5856 4.42575 20.155C4.42575 20.155 7.05568 22.0095 9.65036 23.6945C9.85555 23.8584 10.1103 23.9476 10.3729 23.9476C10.6354 23.9476 10.8902 23.8584 11.0954 23.6945C14.0106 21.7846 16.3167 20.1483 16.3167 20.1483C17.1151 19.5786 17.6887 18.7472 17.9379 17.7986L20.0929 9.55804L20.5813 7.74713Z" fill="url(#paint0_linear_90_2033)"/>
<path d="M10.9682 14.8448C10.8301 14.783 10.6876 14.7314 10.5419 14.6904H10.2851C10.1394 14.7314 9.99695 14.783 9.85882 14.8448L9.21267 15.1134C9.00791 15.199 8.67896 15.3517 8.4826 15.449L7.29435 16.0683C7.25132 16.0823 7.21345 16.1088 7.18562 16.1445C7.1578 16.1802 7.14129 16.2233 7.13822 16.2685C7.13515 16.3136 7.14566 16.3586 7.1684 16.3977C7.19114 16.4368 7.22507 16.4683 7.26582 16.4879L8.29798 17.2163C8.47924 17.3439 8.76456 17.5688 8.93239 17.7198L9.22274 17.9699C9.39057 18.1142 9.66414 18.3542 9.83029 18.5019L10.1055 18.7453C10.1906 18.8161 10.2978 18.8549 10.4085 18.8549C10.5192 18.8549 10.6264 18.8161 10.7114 18.7453L11.0001 18.4935L11.6076 17.9632L11.8997 17.7081C12.0675 17.562 12.3511 17.3371 12.5324 17.2046L13.5646 16.4661C13.6054 16.4465 13.6394 16.415 13.662 16.3758C13.6846 16.3366 13.6949 16.2914 13.6915 16.2462C13.688 16.2011 13.671 16.158 13.6427 16.1227C13.6143 16.0873 13.576 16.0614 13.5327 16.0482L12.3461 15.4457C12.1481 15.345 11.8191 15.1939 11.6127 15.11L10.9682 14.8448Z" fill="white"/>
<path d="M18.2856 8.19523L18.3192 8.08781C18.3212 7.94412 18.3122 7.80049 18.2923 7.65816C18.1924 7.40394 18.064 7.16184 17.9097 6.93649L17.2383 5.95131C17.1142 5.76669 16.9027 5.47467 16.76 5.3018L15.8604 4.17564C15.7784 4.06589 15.6893 3.96161 15.5936 3.86348H15.5751C15.5751 3.86348 15.3939 3.89536 15.1757 3.93732L13.8011 4.2025L13.1986 4.3183C12.9986 4.3277 12.7986 4.29865 12.6095 4.23271L11.5237 3.88194C11.3122 3.81313 10.9631 3.71411 10.7466 3.66711C10.5184 3.64286 10.2883 3.64286 10.0602 3.66711C9.84366 3.71746 9.49457 3.81481 9.2831 3.88362L8.19723 4.23606C8.00815 4.302 7.80817 4.33106 7.60814 4.32166L7.00562 4.20753L5.6294 3.94404C5.41122 3.90208 5.23164 3.86851 5.22996 3.87019H5.2115C5.11584 3.96832 5.0267 4.0726 4.94464 4.18236L4.04674 5.30851C3.90912 5.47634 3.69262 5.77509 3.56842 5.95802L2.89709 6.9432C2.78115 7.11309 2.67523 7.28962 2.57989 7.47187C2.52238 7.6751 2.4919 7.88501 2.48926 8.0962L2.52282 8.20362C2.53898 8.27261 2.55973 8.34046 2.58492 8.40669C2.72422 8.57453 2.96254 8.85313 3.11527 9.01593L5.46492 11.5133C5.54293 11.6043 5.59512 11.7146 5.61607 11.8327C5.63703 11.9507 5.62598 12.0723 5.58408 12.1846L5.19975 13.0959C5.11236 13.3374 5.10588 13.6007 5.18129 13.8461L5.25849 14.0576C5.38463 14.4011 5.60086 14.7042 5.8845 14.9354L6.25373 15.2358C6.34965 15.305 6.46157 15.3487 6.579 15.3628C6.69642 15.3768 6.8155 15.3609 6.92506 15.3163L8.23751 14.6903C8.47842 14.5697 8.70384 14.4204 8.90884 14.2456L9.95947 13.2973C10.0013 13.2595 10.0352 13.2137 10.059 13.1626C10.0828 13.1115 10.0961 13.0562 10.0982 12.9998C10.1002 12.9435 10.0909 12.8873 10.0708 12.8346C10.0507 12.7819 10.0203 12.7338 9.98129 12.6931L7.60982 11.0954C7.52003 11.0316 7.45607 10.9378 7.42959 10.831C7.4031 10.7241 7.41584 10.6113 7.46548 10.513L8.3852 8.78432C8.43751 8.67849 8.46843 8.5634 8.4762 8.44561C8.48398 8.32783 8.46846 8.20966 8.43052 8.09788C8.31631 7.88466 8.13191 7.71746 7.90856 7.6246L5.0252 6.53537C4.81709 6.45649 4.82884 6.36753 5.0487 6.35411L6.74212 6.18628C7.00767 6.16939 7.27424 6.19316 7.53261 6.25676L9.00618 6.66795C9.1108 6.69949 9.20043 6.76789 9.25845 6.86048C9.31647 6.95307 9.33895 7.06355 9.32171 7.17145L8.74269 10.3334C8.70396 10.5085 8.69432 10.6889 8.71415 10.8671C8.73765 10.9426 8.93569 11.0349 9.15219 11.0887L10.0501 11.28C10.3109 11.3279 10.5782 11.3279 10.8389 11.28L11.6462 11.097C11.8627 11.0484 12.059 10.946 12.0842 10.8705C12.1035 10.6921 12.0933 10.5118 12.054 10.3368L11.4716 7.17481C11.4544 7.06691 11.4769 6.95642 11.5349 6.86383C11.5929 6.77125 11.6825 6.70284 11.7872 6.67131L13.2607 6.25844C13.5191 6.19481 13.7857 6.17104 14.0512 6.18795L15.7446 6.34572C15.9662 6.36586 15.9762 6.44809 15.7698 6.52697L12.8881 7.61956C12.6648 7.71242 12.4804 7.87962 12.3662 8.09285C12.2897 8.31863 12.306 8.56551 12.4115 8.77928L13.3329 10.508C13.3825 10.6062 13.3953 10.7191 13.3688 10.8259C13.3423 10.9328 13.2784 11.0266 13.1886 11.0903L10.8188 12.6914C10.7798 12.7322 10.7493 12.7803 10.7292 12.833C10.7092 12.8856 10.6999 12.9418 10.7019 12.9982C10.7039 13.0545 10.7172 13.1099 10.7411 13.161C10.7649 13.2121 10.7987 13.2579 10.8406 13.2956L11.8929 14.2439C12.098 14.4181 12.3234 14.5669 12.5642 14.687L13.8767 15.3113C13.9864 15.3556 14.1055 15.3713 14.223 15.3569C14.3404 15.3425 14.4522 15.2985 14.548 15.2291L14.9172 14.927C15.2012 14.6954 15.4174 14.3916 15.5432 14.0475L15.6204 13.8361C15.6959 13.5906 15.6894 13.3273 15.602 13.0859L15.216 12.1745C15.1741 12.0622 15.163 11.9407 15.184 11.8226C15.2049 11.7045 15.2571 11.5943 15.3351 11.5032L17.6848 9.0025C17.8375 8.83467 18.0742 8.56613 18.2135 8.39327C18.2419 8.32892 18.266 8.26276 18.2856 8.19523Z" fill="white"/>
</g>
<defs>
<linearGradient id="paint0_linear_90_2033" x1="0.167846" y1="11.9748" x2="20.5746" y2="11.9748" gradientUnits="userSpaceOnUse">
<stop stop-color="#F1562B"/>
<stop offset="0.3" stop-color="#F1542B"/>
<stop offset="0.41" stop-color="#F04D2A"/>
<stop offset="0.49" stop-color="#EF4229"/>
<stop offset="0.5" stop-color="#EF4029"/>
<stop offset="0.56" stop-color="#E83E28"/>
<stop offset="0.67" stop-color="#E13C26"/>
<stop offset="1" stop-color="#DF3C26"/>
</linearGradient>
<clipPath id="clip0_90_2033">
<rect width="20.6434" height="24" fill="white"/>
</clipPath>
</defs>
</svg>
