<svg width="24" height="24" viewBox="0 0 24 24" fill="none" xmlns="http://www.w3.org/2000/svg">
<g clip-path="url(#clip0_84_3881)">
<path d="M12.0004 18.6766C15.6881 18.6766 18.6774 15.6871 18.6774 11.9994C18.6774 8.31176 15.6881 5.32227 12.0004 5.32227C8.31274 5.32227 5.32324 8.31176 5.32324 11.9994C5.32324 15.6871 8.31265 18.6766 12.0003 18.6766" fill="white"/>
<path d="M3.36454 8.71855C2.86641 7.85573 2.28091 6.9502 1.60804 6.00195C0.554636 7.82608 3.57822e-05 9.8954 1.73142e-09 12.0018C-3.57787e-05 14.1083 0.554494 16.1776 1.60784 18.0018C2.66118 19.826 4.17621 21.3407 6.0006 22.3936C7.82499 23.4466 9.89444 24.0007 12.0009 24.0002C13.1053 22.4511 13.8552 21.3342 14.2505 20.6495C15.0098 19.3344 15.9917 17.4516 17.1964 15.001V14.9996C16.6701 15.9121 15.9128 16.6699 15.0007 17.1969C14.0886 17.7239 13.0538 18.0014 12.0005 18.0015C10.9471 18.0017 9.9122 17.7245 8.99993 17.1978C8.08766 16.6711 7.33015 15.9135 6.80357 15.0012C5.16745 11.9498 4.0211 9.85555 3.36454 8.71855Z" fill="#229342"/>
<path d="M12.0002 23.9998C13.5761 24.0001 15.1366 23.6898 16.5926 23.0869C18.0486 22.4839 19.3715 21.6 20.4858 20.4857C21.6001 19.3713 22.4839 18.0483 23.0868 16.5923C23.6897 15.1363 23.9998 13.5758 23.9995 11.9999C23.999 9.89341 23.4441 7.82417 22.3904 6.00016C20.1172 5.77609 18.4395 5.66406 17.3574 5.66406C16.1304 5.66406 14.3444 5.77609 11.9994 6.00016L11.998 6.00109C13.0515 6.00057 14.0864 6.27744 14.9989 6.80386C15.9113 7.33027 16.6691 8.08767 17.1959 8.99988C17.7228 9.91208 18.0002 10.9469 18.0001 12.0004C18.0001 13.0538 17.7227 14.0886 17.1958 15.0008L12.0002 23.9998Z" fill="#FBC116"/>
<path d="M12.0003 16.7506C14.6238 16.7506 16.7505 14.6239 16.7505 12.0003C16.7505 9.37672 14.6238 7.25 12.0002 7.25C9.37681 7.25 7.25 9.37681 7.25 12.0003C7.25 14.6238 9.37681 16.7506 12.0003 16.7506Z" fill="#1A73E8"/>
<path d="M12.0004 6.00041H22.3914C21.3384 4.17599 19.8237 2.66095 17.9995 1.60764C16.1753 0.554321 14.1059 -0.000142503 11.9995 2.74723e-08C9.89302 0.000142558 7.82372 0.554886 5.99966 1.60845C4.17561 2.66201 2.66109 4.17725 1.6084 6.00181L6.80393 15.0009L6.80534 15.0016C6.27823 14.0896 6.00056 13.0548 6.00025 12.0014C5.99994 10.948 6.277 9.9131 6.80357 9.00075C7.33014 8.08839 8.08765 7.33077 8.99993 6.80407C9.91221 6.27737 10.9471 6.00016 12.0005 6.00031L12.0004 6.00041Z" fill="#E33B2E"/>
</g>
<defs>
<clipPath id="clip0_84_3881">
<rect width="24" height="24" fill="white"/>
</clipPath>
</defs>
</svg>
