<svg width="25" height="24" viewBox="0 0 25 24" fill="none" xmlns="http://www.w3.org/2000/svg">
<g clip-path="url(#clip0_90_2004)">
<path d="M22.309 17.8594C21.9871 18.0266 21.6553 18.1738 21.3152 18.3C20.2386 18.7007 19.0984 18.904 17.9496 18.9C13.5152 18.9 9.65273 15.8531 9.65273 11.9344C9.6585 11.4096 9.80398 10.8959 10.0742 10.4461C10.3444 9.99623 10.7297 9.62652 11.1902 9.375C7.17773 9.54375 6.14648 13.725 6.14648 16.1719C6.14648 23.1094 12.5309 23.8031 13.909 23.8031C14.6496 23.8031 15.7652 23.5875 16.4402 23.3719L16.5621 23.3344C19.1453 22.4417 21.3474 20.6958 22.8059 18.3844C22.8482 18.3141 22.8664 18.232 22.8576 18.1504C22.8488 18.0688 22.8135 17.9924 22.7572 17.9328C22.7008 17.8733 22.6264 17.8338 22.5455 17.8205C22.4645 17.8073 22.3814 17.8209 22.309 17.8594Z" fill="url(#paint0_linear_90_2004)"/>
<path opacity="0.35" d="M22.309 17.8594C21.9871 18.0266 21.6553 18.1738 21.3152 18.3C20.2386 18.7007 19.0984 18.904 17.9496 18.9C13.5152 18.9 9.65273 15.8531 9.65273 11.9344C9.6585 11.4096 9.80398 10.8959 10.0742 10.4461C10.3444 9.99623 10.7297 9.62652 11.1902 9.375C7.17773 9.54375 6.14648 13.725 6.14648 16.1719C6.14648 23.1094 12.5309 23.8031 13.909 23.8031C14.6496 23.8031 15.7652 23.5875 16.4402 23.3719L16.5621 23.3344C19.1453 22.4417 21.3474 20.6958 22.8059 18.3844C22.8482 18.3141 22.8664 18.232 22.8576 18.1504C22.8488 18.0688 22.8135 17.9924 22.7572 17.9328C22.7008 17.8733 22.6264 17.8338 22.5455 17.8205C22.4645 17.8073 22.3814 17.8209 22.309 17.8594Z" fill="url(#paint1_radial_90_2004)"/>
<path d="M10.5528 22.6218C9.71836 22.1035 8.99501 21.4248 8.42472 20.6249C7.77347 19.7335 7.32519 18.7104 7.11133 17.6274C6.89747 16.5444 6.92321 15.4277 7.18675 14.3556C7.45029 13.2836 7.94524 12.2822 8.63687 11.4218C9.32849 10.5614 10.2 9.86274 11.1903 9.3749C11.4903 9.23428 11.9872 8.99053 12.6528 8.9999C13.1212 9.00353 13.5824 9.11542 14.0004 9.32685C14.4184 9.53827 14.7818 9.84349 15.0622 10.2187C15.4394 10.7259 15.6462 11.3397 15.6528 11.9718C15.6528 11.953 17.9497 4.50928 8.15284 4.50928C4.03722 4.50928 0.652842 8.40928 0.652842 11.8405C0.636471 13.653 1.02398 15.4465 1.78722 17.0905C3.03716 19.7521 5.22084 21.8621 7.92375 23.02C10.6267 24.1779 13.6606 24.3031 16.4497 23.3718C15.4726 23.6804 14.4401 23.7732 13.4236 23.6437C12.4071 23.5142 11.4308 23.1655 10.5622 22.6218H10.5528Z" fill="url(#paint2_linear_90_2004)"/>
<path opacity="0.41" d="M10.5528 22.6218C9.71836 22.1035 8.99501 21.4248 8.42472 20.6249C7.77347 19.7335 7.32519 18.7104 7.11133 17.6274C6.89747 16.5444 6.92321 15.4277 7.18675 14.3556C7.45029 13.2836 7.94524 12.2822 8.63687 11.4218C9.32849 10.5614 10.2 9.86274 11.1903 9.3749C11.4903 9.23428 11.9872 8.99053 12.6528 8.9999C13.1212 9.00353 13.5824 9.11542 14.0004 9.32685C14.4184 9.53827 14.7818 9.84349 15.0622 10.2187C15.4394 10.7259 15.6462 11.3397 15.6528 11.9718C15.6528 11.953 17.9497 4.50928 8.15284 4.50928C4.03722 4.50928 0.652842 8.40928 0.652842 11.8405C0.636471 13.653 1.02398 15.4465 1.78722 17.0905C3.03716 19.7521 5.22084 21.8621 7.92375 23.02C10.6267 24.1779 13.6606 24.3031 16.4497 23.3718C15.4726 23.6804 14.4401 23.7732 13.4236 23.6437C12.4071 23.5142 11.4308 23.1655 10.5622 22.6218H10.5528Z" fill="url(#paint3_radial_90_2004)"/>
<path d="M14.9311 13.95C14.8467 14.0438 14.6123 14.1844 14.6123 14.475C14.6123 14.7187 14.7717 14.9625 15.0623 15.1594C16.4029 16.0969 18.9436 15.9656 18.9529 15.9656C19.9524 15.965 20.9333 15.6963 21.7936 15.1875C22.6596 14.6809 23.3782 13.9568 23.8782 13.0869C24.3781 12.2169 24.6419 11.2315 24.6436 10.2281C24.6717 8.12812 23.8936 6.73125 23.5842 6.1125C21.5873 2.23125 17.3029 5.87477e-08 12.6436 5.87477e-08C9.48998 -0.000311772 6.46303 1.24078 4.21738 3.45485C1.97173 5.66892 0.687902 8.67799 0.643555 11.8312C0.69043 8.40937 4.09355 5.64375 8.14355 5.64375C8.47168 5.64375 10.3467 5.67187 12.0811 6.58125C13.2995 7.18674 14.3086 8.14353 14.9779 9.32812C15.5498 10.3219 15.6529 11.5875 15.6529 12.0938C15.6529 12.6 15.3998 13.3406 14.9217 13.9594L14.9311 13.95Z" fill="url(#paint4_radial_90_2004)"/>
<path d="M14.9311 13.95C14.8467 14.0438 14.6123 14.1844 14.6123 14.475C14.6123 14.7187 14.7717 14.9625 15.0623 15.1594C16.4029 16.0969 18.9436 15.9656 18.9529 15.9656C19.9524 15.965 20.9333 15.6963 21.7936 15.1875C22.6596 14.6809 23.3782 13.9568 23.8782 13.0869C24.3781 12.2169 24.6419 11.2315 24.6436 10.2281C24.6717 8.12812 23.8936 6.73125 23.5842 6.1125C21.5873 2.23125 17.3029 5.87477e-08 12.6436 5.87477e-08C9.48998 -0.000311772 6.46303 1.24078 4.21738 3.45485C1.97173 5.66892 0.687902 8.67799 0.643555 11.8312C0.69043 8.40937 4.09355 5.64375 8.14355 5.64375C8.47168 5.64375 10.3467 5.67187 12.0811 6.58125C13.2995 7.18674 14.3086 8.14353 14.9779 9.32812C15.5498 10.3219 15.6529 11.5875 15.6529 12.0938C15.6529 12.6 15.3998 13.3406 14.9217 13.9594L14.9311 13.95Z" fill="url(#paint5_radial_90_2004)"/>
</g>
<defs>
<linearGradient id="paint0_linear_90_2004" x1="6.14648" y1="16.5937" x2="22.8715" y2="16.5937" gradientUnits="userSpaceOnUse">
<stop stop-color="#0C59A4"/>
<stop offset="1" stop-color="#114A8B"/>
</linearGradient>
<radialGradient id="paint1_radial_90_2004" cx="0" cy="0" r="1" gradientUnits="userSpaceOnUse" gradientTransform="translate(15.3809 16.7198) scale(8.94375 8.49656)">
<stop offset="0.7" stop-opacity="0"/>
<stop offset="0.9" stop-opacity="0.5"/>
<stop offset="1"/>
</radialGradient>
<linearGradient id="paint2_linear_90_2004" x1="14.9591" y1="9.3374" x2="4.52472" y2="20.7093" gradientUnits="userSpaceOnUse">
<stop stop-color="#1B9DE2"/>
<stop offset="0.2" stop-color="#1595DF"/>
<stop offset="0.7" stop-color="#0680D7"/>
<stop offset="1" stop-color="#0078D4"/>
</linearGradient>
<radialGradient id="paint3_radial_90_2004" cx="0" cy="0" r="1" gradientUnits="userSpaceOnUse" gradientTransform="translate(7.258 18.6502) rotate(-81.3844) scale(13.4424 10.8601)">
<stop offset="0.8" stop-opacity="0"/>
<stop offset="0.9" stop-opacity="0.5"/>
<stop offset="1"/>
</radialGradient>
<radialGradient id="paint4_radial_90_2004" cx="0" cy="0" r="1" gradientUnits="userSpaceOnUse" gradientTransform="translate(3.07074 4.43587) rotate(92.2906) scale(18.9902 40.4451)">
<stop stop-color="#35C1F1"/>
<stop offset="0.1" stop-color="#34C1ED"/>
<stop offset="0.2" stop-color="#2FC2DF"/>
<stop offset="0.3" stop-color="#2BC3D2"/>
<stop offset="0.7" stop-color="#36C752"/>
</radialGradient>
<radialGradient id="paint5_radial_90_2004" cx="0" cy="0" r="1" gradientUnits="userSpaceOnUse" gradientTransform="translate(23.1492 7.24687) rotate(73.7398) scale(9.12187 7.41791)">
<stop stop-color="#66EB6E"/>
<stop offset="1" stop-color="#66EB6E" stop-opacity="0"/>
</radialGradient>
<clipPath id="clip0_90_2004">
<rect width="24" height="24" fill="white" transform="translate(0.643555)"/>
</clipPath>
</defs>
</svg>
