<svg width="24" height="24" viewBox="0 0 24 24" fill="none" xmlns="http://www.w3.org/2000/svg">
<g clip-path="url(#clip0_84_3895)">
<path d="M22.4398 7.79774C21.9502 6.62005 20.9585 5.34861 20.1798 4.94675C20.8136 6.18917 21.1804 7.43549 21.3205 8.36563C21.3205 8.36745 21.3212 8.372 21.3227 8.38438C20.0489 5.20939 17.889 3.92914 16.1252 1.14158C16.0361 1.00063 15.9468 0.859298 15.8598 0.71033C15.8155 0.63425 15.7742 0.556506 15.7358 0.477267C15.6625 0.335791 15.606 0.186249 15.5674 0.0316733C15.5676 0.0243553 15.5652 0.0172009 15.5604 0.0116153C15.5557 0.0060297 15.549 0.00241661 15.5418 0.00148576C15.5349 -0.000495252 15.5275 -0.000495252 15.5206 0.00148576C15.519 0.00204826 15.5167 0.00387638 15.515 0.00453263C15.5125 0.00551701 15.5094 0.00776701 15.5068 0.00922013C15.508 0.00753263 15.5107 0.00373576 15.5115 0.00284513C12.6816 1.66016 11.7216 4.72602 11.6334 6.25991C10.5034 6.33759 9.42293 6.75394 8.53298 7.45466C8.43981 7.37596 8.3424 7.30241 8.24119 7.23435C7.98442 6.33603 7.97351 5.38525 8.20959 4.48128C7.05234 5.0082 6.15225 5.84113 5.49787 6.5766H5.49267C5.04609 6.01095 5.07759 4.14505 5.10305 3.75547C5.0977 3.73133 4.76991 3.92563 4.72697 3.95492C4.3329 4.23621 3.96449 4.55181 3.62606 4.89805C3.24095 5.28859 2.88907 5.71057 2.57409 6.1596C2.57409 6.16016 2.57377 6.16081 2.57358 6.16138C2.57358 6.16077 2.57391 6.16016 2.57409 6.1596C1.8497 7.18613 1.33595 8.34606 1.06252 9.57233C1.05713 9.59675 1.05258 9.62206 1.04733 9.64667C1.02614 9.74586 0.949828 10.242 0.936469 10.3498C0.935438 10.3581 0.934969 10.3661 0.933984 10.3744C0.835324 10.8873 0.774224 11.4068 0.751172 11.9286C0.751172 11.9478 0.75 11.9668 0.75 11.9861C0.750188 18.207 5.79394 23.2499 12.0154 23.2499C17.5872 23.2499 22.2135 19.2052 23.1192 13.8923C23.1383 13.7481 23.1536 13.6032 23.1704 13.4577C23.3943 11.526 23.1456 9.49559 22.4398 7.79774ZM9.45563 16.6146C9.50831 16.6398 9.55781 16.6673 9.61191 16.6915C9.61416 16.693 9.61725 16.6948 9.61955 16.6962C9.56449 16.6698 9.50984 16.6427 9.45563 16.6146ZM21.3236 8.38714L21.3221 8.37622C21.3227 8.38021 21.3234 8.38438 21.324 8.38836L21.3236 8.38714Z" fill="url(#paint0_linear_84_3895)"/>
<path d="M22.4397 7.79776C21.9501 6.62007 20.9584 5.34864 20.1797 4.94678C20.8135 6.1892 21.1803 7.43551 21.3204 8.36565C21.3204 8.36293 21.321 8.3679 21.3221 8.37625C21.3227 8.38023 21.3234 8.3844 21.324 8.38839C22.3869 11.2698 21.8078 14.1999 20.9734 15.9903C19.6825 18.7607 16.5571 21.5999 11.6652 21.4614C6.37978 21.3117 1.7235 17.39 0.854297 12.2536C0.695906 11.4436 0.854297 11.0323 0.933984 10.3746C0.836906 10.8816 0.799922 11.0281 0.751172 11.9289C0.751172 11.9481 0.75 11.9671 0.75 11.9864C0.750094 18.2071 5.79384 23.25 12.0153 23.25C17.5871 23.25 22.2134 19.2052 23.1191 13.8923C23.1382 13.7481 23.1535 13.6032 23.1703 13.4577C23.3942 11.526 23.1455 9.49562 22.4397 7.79776Z" fill="url(#paint1_radial_84_3895)"/>
<path d="M22.4397 7.79776C21.9501 6.62007 20.9584 5.34864 20.1797 4.94678C20.8135 6.1892 21.1803 7.43551 21.3204 8.36565C21.3204 8.36293 21.321 8.3679 21.3221 8.37625C21.3227 8.38023 21.3234 8.3844 21.324 8.38839C22.3869 11.2698 21.8078 14.1999 20.9734 15.9903C19.6825 18.7607 16.5571 21.5999 11.6652 21.4614C6.37978 21.3117 1.7235 17.39 0.854297 12.2536C0.695906 11.4436 0.854297 11.0323 0.933984 10.3746C0.836906 10.8816 0.799922 11.0281 0.751172 11.9289C0.751172 11.9481 0.75 11.9671 0.75 11.9864C0.750094 18.2071 5.79384 23.25 12.0153 23.25C17.5871 23.25 22.2134 19.2052 23.1191 13.8923C23.1382 13.7481 23.1535 13.6032 23.1703 13.4577C23.3942 11.526 23.1455 9.49562 22.4397 7.79776Z" fill="url(#paint2_radial_84_3895)"/>
<path d="M16.9645 9.1216C16.9891 9.13885 17.0114 9.156 17.0345 9.17316C16.7518 8.67139 16.3997 8.212 15.9887 7.80854C12.4869 4.30716 15.0705 0.216566 15.5062 0.00881641C15.5075 0.00712891 15.5101 0.00333203 15.5109 0.00244141C12.681 1.65975 11.721 4.72561 11.6328 6.2595C11.7641 6.25041 11.8949 6.2394 12.0285 6.2394C14.1403 6.2394 15.9796 7.40049 16.9645 9.1216Z" fill="url(#paint3_radial_84_3895)"/>
<path d="M12.0361 9.8206C12.0176 10.1008 11.0276 11.0671 10.6814 11.0671C7.47799 11.0671 6.95801 13.0047 6.95801 13.0047C7.0999 14.6364 8.23587 15.9801 9.61165 16.6911C9.67441 16.7236 9.73793 16.7529 9.80149 16.7818C9.91047 16.8301 10.0208 16.8752 10.1324 16.9171C10.6041 17.0841 11.0982 17.1794 11.5982 17.1998C17.2129 17.4631 18.3007 10.4876 14.2488 8.46193C15.2864 8.28146 16.3635 8.69879 16.965 9.12132C15.9801 7.40035 14.1408 6.23926 12.0291 6.23926C11.8955 6.23926 11.7647 6.25027 11.6334 6.25937C10.5033 6.33705 9.42291 6.7534 8.53296 7.45412C8.70471 7.59943 8.89859 7.79368 9.30705 8.19605C10.0712 8.9492 12.0319 9.7291 12.0361 9.8206Z" fill="url(#paint4_radial_84_3895)"/>
<path d="M12.0361 9.8206C12.0176 10.1008 11.0276 11.0671 10.6814 11.0671C7.47799 11.0671 6.95801 13.0047 6.95801 13.0047C7.0999 14.6364 8.23587 15.9801 9.61165 16.6911C9.67441 16.7236 9.73793 16.7529 9.80149 16.7818C9.91047 16.8301 10.0208 16.8752 10.1324 16.9171C10.6041 17.0841 11.0982 17.1794 11.5982 17.1998C17.2129 17.4631 18.3007 10.4876 14.2488 8.46193C15.2864 8.28146 16.3635 8.69879 16.965 9.12132C15.9801 7.40035 14.1408 6.23926 12.0291 6.23926C11.8955 6.23926 11.7647 6.25027 11.6334 6.25937C10.5033 6.33705 9.42291 6.7534 8.53296 7.45412C8.70471 7.59943 8.89859 7.79368 9.30705 8.19605C10.0712 8.9492 12.0319 9.7291 12.0361 9.8206Z" fill="url(#paint5_radial_84_3895)"/>
<path d="M8.00787 7.07982C8.08633 7.13043 8.16417 7.18199 8.24136 7.23451C7.98459 6.33619 7.97368 5.38542 8.20977 4.48145C7.05252 5.00837 6.15242 5.84129 5.49805 6.57676C5.55219 6.57521 7.1862 6.54582 8.00787 7.07982Z" fill="url(#paint6_radial_84_3895)"/>
<path d="M0.854464 12.2538C1.72367 17.3903 6.37995 21.312 11.6653 21.4617C16.5573 21.6001 19.6827 18.7607 20.9736 15.9906C21.808 14.2 22.3871 11.2703 21.3242 8.38866L21.3238 8.38744L21.3223 8.37652C21.3211 8.36818 21.3204 8.36321 21.3206 8.36593C21.3206 8.36775 21.3213 8.3723 21.3228 8.38468C21.7224 10.9938 20.3952 13.5214 18.3204 15.2305L18.3142 15.2452C14.2714 18.5369 10.4029 17.2312 9.61962 16.6967C9.56457 16.6702 9.50987 16.643 9.45556 16.615C7.09859 15.4886 6.1249 13.3413 6.33368 11.4998C4.34351 11.4998 3.6649 9.82125 3.6649 9.82125C3.6649 9.82125 5.45173 8.54724 7.80668 9.65527C9.98778 10.6815 12.0361 9.82135 12.0364 9.82125C12.0322 9.72975 10.0715 8.94985 9.30715 8.19675C8.89873 7.79438 8.70481 7.60036 8.53306 7.45482C8.43988 7.37611 8.34247 7.30257 8.24126 7.2345C8.16398 7.18212 8.08615 7.13056 8.00778 7.07982C7.18615 6.54582 5.55209 6.57521 5.49795 6.57661H5.49275C5.04617 6.01097 5.07767 4.14507 5.10312 3.75549C5.09778 3.73135 4.76998 3.92564 4.72704 3.95494C4.33297 4.23623 3.96457 4.55183 3.62614 4.89807C3.24101 5.2887 2.88913 5.71077 2.57417 6.1599C2.57417 6.16046 2.57384 6.16111 2.57365 6.16168C2.57365 6.16107 2.57398 6.16046 2.57417 6.1599C1.84978 7.18643 1.33602 8.34635 1.06259 9.57263C1.0572 9.59705 0.65712 11.3465 0.854464 12.2538Z" fill="url(#paint7_radial_84_3895)"/>
<path d="M15.9894 7.80871C16.4004 8.21217 16.7525 8.67156 17.0352 9.17333C17.0972 9.21992 17.1552 9.26638 17.2043 9.3117C19.7582 11.6648 18.4201 14.993 18.3203 15.2301C20.395 13.5211 21.7222 10.9934 21.3227 8.38433C20.0489 5.20939 17.8889 3.92914 16.1251 1.14158C16.0361 1.00063 15.9468 0.859298 15.8598 0.71033C15.8155 0.63425 15.7741 0.556506 15.7357 0.477267C15.6625 0.335791 15.6059 0.186249 15.5673 0.0316733C15.5676 0.0243553 15.5651 0.0172009 15.5604 0.0116153C15.5556 0.0060297 15.549 0.00241661 15.5417 0.00148576C15.5348 -0.000495252 15.5275 -0.000495252 15.5206 0.00148576C15.519 0.00204826 15.5166 0.00387638 15.515 0.00453263C15.5125 0.00551701 15.5093 0.00776701 15.5067 0.00922013C15.0712 0.216783 12.4876 4.30738 15.9894 7.80871Z" fill="url(#paint8_radial_84_3895)"/>
<path d="M17.2038 9.31144C17.1546 9.26612 17.0967 9.21966 17.0347 9.17307C17.0118 9.15582 16.9893 9.13866 16.9647 9.12151C16.3632 8.69897 15.2861 8.28165 14.2484 8.46211C18.3004 10.4878 17.2126 17.4633 11.5979 17.2C11.0979 17.1796 10.6038 17.0843 10.1321 16.9173C10.0205 16.8753 9.91017 16.8302 9.80117 16.782C9.73761 16.753 9.67409 16.7237 9.61133 16.6913C9.61358 16.6929 9.61667 16.6946 9.61897 16.696C10.4022 17.2304 14.2708 18.5362 18.3135 15.2445L18.3198 15.2298C18.4196 14.9929 19.7577 11.6646 17.2038 9.31144Z" fill="url(#paint9_radial_84_3895)"/>
<path d="M6.95843 13.0051C6.95843 13.0051 7.47841 11.0675 10.6818 11.0675C11.0281 11.0675 12.0182 10.1012 12.0365 9.82096C12.0548 9.54074 9.98805 10.6812 7.80682 9.65497C5.45187 8.54694 3.66504 9.82096 3.66504 9.82096C3.66504 9.82096 4.34365 11.4995 6.33382 11.4995C6.12509 13.341 7.09877 15.4886 9.4557 16.6147C9.50838 16.6399 9.55788 16.6674 9.61198 16.6915C8.23629 15.9805 7.10032 14.6368 6.95843 13.0051Z" fill="url(#paint10_radial_84_3895)"/>
<path d="M22.4396 7.79774C21.95 6.62005 20.9583 5.34861 20.1796 4.94675C20.8134 6.18917 21.1802 7.43549 21.3203 8.36563C21.3203 8.36745 21.321 8.372 21.3225 8.38438C20.0487 5.20939 17.8888 3.92914 16.125 1.14158C16.0359 1.00063 15.9466 0.859298 15.8596 0.71033C15.8153 0.63425 15.774 0.556506 15.7356 0.477267C15.6623 0.335791 15.6058 0.186249 15.5672 0.0316733C15.5675 0.0243553 15.565 0.0172009 15.5602 0.0116153C15.5555 0.0060297 15.5489 0.00241661 15.5416 0.00148576C15.5347 -0.000495252 15.5274 -0.000495252 15.5205 0.00148576C15.5189 0.00204826 15.5165 0.00387638 15.5148 0.00453263C15.5123 0.00551701 15.5092 0.00776701 15.5066 0.00922013C15.5078 0.00753263 15.5105 0.00373576 15.5113 0.00284513C12.6814 1.66016 11.7214 4.72602 11.6332 6.25991C11.7645 6.25081 11.8953 6.2398 12.0289 6.2398C14.1408 6.2398 15.9801 7.40089 16.9649 9.12186C16.3634 8.69933 15.2863 8.282 14.2486 8.46247C18.3005 10.4881 17.2127 17.4637 11.598 17.2003C11.098 17.1799 10.6039 17.0846 10.1322 16.9176C10.0207 16.8757 9.91032 16.8306 9.80133 16.7824C9.73777 16.7534 9.67425 16.7241 9.61148 16.6917C9.61373 16.6932 9.61683 16.6949 9.61912 16.6963C9.56407 16.6699 9.50938 16.6426 9.45506 16.6146C9.50775 16.6398 9.55725 16.6673 9.61134 16.6915C8.23556 15.9805 7.09959 14.6368 6.9577 13.0051C6.9577 13.0051 7.47769 11.0675 10.6811 11.0675C11.0274 11.0675 12.0174 10.1012 12.0358 9.82096C12.0316 9.72945 10.0709 8.94955 9.30656 8.19646C8.89814 7.79408 8.70422 7.60006 8.53247 7.45452C8.43929 7.37581 8.34188 7.30227 8.24067 7.2342C7.98391 6.33589 7.97299 5.38511 8.20908 4.48114C7.05183 5.00806 6.15173 5.84099 5.49736 6.57645H5.49216C5.04558 6.01081 5.07708 4.14491 5.10253 3.75533C5.09719 3.73119 4.76939 3.92549 4.72645 3.95478C4.33238 4.23607 3.96398 4.55167 3.62555 4.89791C3.24054 5.28851 2.88878 5.71053 2.57391 6.1596C2.57391 6.16016 2.57358 6.16081 2.57339 6.16138C2.57339 6.16077 2.57372 6.16016 2.57391 6.1596C1.84952 7.18613 1.33576 8.34606 1.06233 9.57233C1.05694 9.59675 1.05239 9.62206 1.04714 9.64667C1.02595 9.74586 0.930609 10.2492 0.917297 10.3571C0.916266 10.3654 0.918281 10.3489 0.917297 10.3571C0.830351 10.8772 0.774875 11.4021 0.751172 11.9288C0.751172 11.948 0.75 11.9671 0.75 11.9863C0.75 18.207 5.79375 23.2499 12.0152 23.2499C17.587 23.2499 22.2133 19.2052 23.119 13.8923C23.1381 13.7481 23.1534 13.6032 23.1702 13.4577C23.3941 11.526 23.1454 9.49559 22.4396 7.79774ZM21.322 8.37622C21.3226 8.38021 21.3233 8.38438 21.3239 8.38836L21.3235 8.38714L21.322 8.37622Z" fill="url(#paint11_linear_84_3895)"/>
</g>
<defs>
<linearGradient id="paint0_linear_84_3895" x1="1963.89" y1="360.374" x2="155.045" y2="2105.27" gradientUnits="userSpaceOnUse">
<stop offset="0.05" stop-color="#FFF44F"/>
<stop offset="0.37" stop-color="#FF980E"/>
<stop offset="0.53" stop-color="#FF3647"/>
<stop offset="0.7" stop-color="#E31587"/>
</linearGradient>
<radialGradient id="paint1_radial_84_3895" cx="0" cy="0" r="1" gradientUnits="userSpaceOnUse" gradientTransform="translate(1573.81 -231.158) scale(2304.01 2342.81)">
<stop offset="0.13" stop-color="#FFBD4F"/>
<stop offset="0.28" stop-color="#FF980E"/>
<stop offset="0.47" stop-color="#FF3750"/>
<stop offset="0.78" stop-color="#EB0878"/>
<stop offset="0.86" stop-color="#E50080"/>
</radialGradient>
<radialGradient id="paint2_radial_84_3895" cx="0" cy="0" r="1" gradientUnits="userSpaceOnUse" gradientTransform="translate(904.672 737.074) scale(2361.61 2342.81)">
<stop offset="0.3" stop-color="#960E18"/>
<stop offset="0.35" stop-color="#B11927" stop-opacity="0.74"/>
<stop offset="0.43" stop-color="#DB293D" stop-opacity="0.34"/>
<stop offset="0.5" stop-color="#F5334B" stop-opacity="0.09"/>
<stop offset="0.53" stop-color="#FF3750" stop-opacity="0"/>
</radialGradient>
<radialGradient id="paint3_radial_84_3895" cx="0" cy="0" r="1" gradientUnits="userSpaceOnUse" gradientTransform="translate(270.914 -110.046) scale(756.236 1283.9)">
<stop offset="0.13" stop-color="#FFF44F"/>
<stop offset="0.53" stop-color="#FF980E"/>
</radialGradient>
<radialGradient id="paint4_radial_84_3895" cx="0" cy="0" r="1" gradientUnits="userSpaceOnUse" gradientTransform="translate(234.718 1213.9) scale(1000.7 1096.78)">
<stop offset="0.35" stop-color="#3A8EE6"/>
<stop offset="0.67" stop-color="#9059FF"/>
<stop offset="1" stop-color="#C139E6"/>
</radialGradient>
<radialGradient id="paint5_radial_84_3895" cx="0" cy="0" r="1" gradientUnits="userSpaceOnUse" gradientTransform="translate(474.591 368.177) scale(531.373 647.101)">
<stop offset="0.21" stop-color="#9059FF" stop-opacity="0"/>
<stop offset="0.97" stop-color="#6E008B" stop-opacity="0.6"/>
</radialGradient>
<radialGradient id="paint6_radial_84_3895" cx="0" cy="0" r="1" gradientUnits="userSpaceOnUse" gradientTransform="translate(581.594 -270.825) scale(795.561 798.388)">
<stop offset="0.1" stop-color="#FFE226"/>
<stop offset="0.79" stop-color="#FF7139"/>
</radialGradient>
<radialGradient id="paint7_radial_84_3895" cx="0" cy="0" r="1" gradientUnits="userSpaceOnUse" gradientTransform="translate(1773.28 -722.485) scale(3798.18 3188.36)">
<stop offset="0.11" stop-color="#FFF44F"/>
<stop offset="0.46" stop-color="#FF980E"/>
<stop offset="0.72" stop-color="#FF3647"/>
<stop offset="0.9" stop-color="#E31587"/>
</radialGradient>
<radialGradient id="paint8_radial_84_3895" cx="0" cy="0" r="1" gradientUnits="userSpaceOnUse" gradientTransform="translate(295.348 46.9807) rotate(77.3946) scale(1205.03 5212.78)">
<stop stop-color="#FFF44F"/>
<stop offset="0.3" stop-color="#FF980E"/>
<stop offset="0.57" stop-color="#FF3647"/>
<stop offset="0.74" stop-color="#E31587"/>
</radialGradient>
<radialGradient id="paint9_radial_84_3895" cx="0" cy="0" r="1" gradientUnits="userSpaceOnUse" gradientTransform="translate(182.495 -373.511) scale(2180.71 2142.4)">
<stop offset="0.14" stop-color="#FFF44F"/>
<stop offset="0.48" stop-color="#FF980E"/>
<stop offset="0.66" stop-color="#FF3647"/>
<stop offset="0.9" stop-color="#E31587"/>
</radialGradient>
<radialGradient id="paint10_radial_84_3895" cx="0" cy="0" r="1" gradientUnits="userSpaceOnUse" gradientTransform="translate(1337.26 -325.723) scale(2621.14 2344.92)">
<stop offset="0.09" stop-color="#FFF44F"/>
<stop offset="0.63" stop-color="#FF980E"/>
</radialGradient>
<linearGradient id="paint11_linear_84_3895" x1="1800.75" y1="325.499" x2="354.302" y2="1905.91" gradientUnits="userSpaceOnUse">
<stop offset="0.17" stop-color="#FFF44F" stop-opacity="0.8"/>
<stop offset="0.6" stop-color="#FFF44F" stop-opacity="0"/>
</linearGradient>
<clipPath id="clip0_84_3895">
<rect width="24" height="24" fill="white"/>
</clipPath>
</defs>
</svg>
