<svg width="25" height="24" viewBox="0 0 25 24" fill="none" xmlns="http://www.w3.org/2000/svg">
<g opacity="0.53" filter="url(#filter0_f_84_3916)">
<path d="M23.0724 12.3813C23.0724 13.773 22.7877 15.1512 22.2346 16.437C21.6815 17.7228 20.8708 18.8911 19.8489 19.8752C18.8269 20.8594 17.6136 21.64 16.2783 22.1726C14.943 22.7052 13.5118 22.9793 12.0665 22.9793C10.6212 22.9793 9.18999 22.7052 7.85469 22.1726C6.51939 21.64 5.30611 20.8594 4.28411 19.8752C3.26212 18.8911 2.45142 17.7228 1.89832 16.437C1.34522 15.1512 1.06055 13.773 1.06055 12.3813C1.06055 9.57049 2.2201 6.87483 4.28411 4.88731C6.34812 2.89978 9.14753 1.7832 12.0665 1.7832C13.5118 1.7832 14.943 2.05733 16.2783 2.58993C17.6136 3.12254 18.8269 3.90318 19.8489 4.88731C20.8708 5.87143 21.6815 7.03975 22.2346 8.32557C22.7877 9.61138 23.0724 10.9895 23.0724 12.3813Z" fill="black"/>
</g>
<path d="M23.4915 11.4455C23.4915 12.9458 23.196 14.4314 22.6218 15.8176C22.0476 17.2037 21.2061 18.4632 20.1452 19.5241C19.0843 20.585 17.8248 21.4266 16.4387 22.0007C15.0525 22.5749 13.5669 22.8704 12.0665 22.8704C9.03645 22.8704 6.13048 21.6667 3.98789 19.5241C1.84529 17.3815 0.641601 14.4755 0.641602 11.4455C0.641601 8.41537 1.84529 5.50939 3.98789 3.3668C6.13048 1.22421 9.03645 0.0205086 12.0665 0.0205078C13.5669 0.0205077 15.0525 0.316024 16.4387 0.890181C17.8248 1.46434 19.0843 2.30589 20.1452 3.3668C21.2061 4.4277 22.0476 5.68717 22.6218 7.07331C23.196 8.45945 23.4915 9.94511 23.4915 11.4455Z" fill="url(#paint0_linear_84_3916)" stroke="#CDCDCD" stroke-width="0.0339235" stroke-linecap="round" stroke-linejoin="round"/>
<path d="M22.5955 11.4457C22.5955 14.2384 21.4861 16.9166 19.5114 18.8913C17.5367 20.866 14.8585 21.9754 12.0658 21.9754C9.27318 21.9754 6.59491 20.866 4.62021 18.8913C2.64551 16.9166 1.53613 14.2384 1.53613 11.4457C1.53613 8.65306 2.64551 5.97479 4.62021 4.00009C6.59491 2.02539 9.27318 0.916016 12.0658 0.916016C14.8585 0.916016 17.5367 2.02539 19.5114 4.00009C21.4861 5.97479 22.5955 8.65306 22.5955 11.4457Z" fill="url(#paint1_radial_84_3916)"/>
<path d="M12.0657 1.46484C11.9806 1.46484 11.9121 1.53331 11.9121 1.61836V3.38914C11.9121 3.4742 11.9806 3.54266 12.0657 3.54266C12.1507 3.54266 12.2192 3.4742 12.2192 3.38914V1.61836C12.2192 1.53331 12.1507 1.46484 12.0657 1.46484ZM11.0613 1.52832C11.0512 1.52723 11.0407 1.52723 11.0301 1.52845C10.9455 1.53727 10.8845 1.61248 10.8934 1.69707L10.9707 2.43789C10.9796 2.52248 11.0548 2.58348 11.1394 2.57464C11.224 2.56582 11.285 2.49061 11.2761 2.40602L11.1988 1.66521C11.1911 1.59119 11.1325 1.53523 11.0613 1.52832ZM13.077 1.52905C13.0058 1.53591 12.9472 1.59186 12.9394 1.66587L12.8615 2.40662C12.8526 2.49121 12.9136 2.56648 12.9982 2.57538C13.0828 2.58428 13.158 2.52334 13.1669 2.43875L13.2448 1.69794C13.2537 1.61335 13.1927 1.53814 13.1081 1.52925C13.0976 1.52815 13.0872 1.52814 13.077 1.52905ZM10.0296 1.67793C10.0194 1.67801 10.009 1.67902 9.99865 1.68121C9.91544 1.69883 9.86263 1.78001 9.88025 1.86322L10.247 3.59557C10.2646 3.67878 10.3458 3.73159 10.429 3.71397C10.5122 3.69636 10.565 3.61524 10.5474 3.53203L10.1807 1.79961C10.1652 1.7268 10.1012 1.67737 10.0296 1.67793ZM14.1086 1.67939C14.0371 1.67866 13.973 1.72824 13.9576 1.80103L13.5896 3.53318C13.5719 3.61638 13.6247 3.69758 13.7078 3.71526C13.791 3.73295 13.8722 3.68017 13.8899 3.59699L14.2579 1.86483C14.2756 1.78164 14.2228 1.70043 14.1396 1.68276C14.1292 1.68057 14.1188 1.67939 14.1086 1.67939ZM9.04507 1.95554C9.02519 1.95372 9.00467 1.95591 8.98444 1.96262C8.90356 1.98891 8.85957 2.07513 8.88586 2.15602L9.11603 2.86444C9.14233 2.94533 9.22861 2.98931 9.3095 2.96303C9.39039 2.93674 9.43431 2.85045 9.40802 2.76956L9.17785 2.06114C9.15816 2.00048 9.10469 1.96061 9.04507 1.95554ZM15.0876 1.95591C15.028 1.96098 14.9746 2.00086 14.9549 2.06152L14.7245 2.76987C14.6982 2.85076 14.7422 2.93705 14.8231 2.96334C14.904 2.98964 14.9902 2.94569 15.0165 2.86482L15.2468 2.1564C15.2731 2.07551 15.2292 1.98922 15.1483 1.96293C15.1281 1.95637 15.1075 1.95423 15.0876 1.95591ZM8.07142 2.31184C8.05147 2.3122 8.03129 2.31658 8.01186 2.32522C7.93419 2.35976 7.8994 2.45012 7.93394 2.52784L8.65316 4.14596C8.6877 4.22368 8.77806 4.25843 8.85577 4.22388C8.93345 4.18934 8.96831 4.09899 8.93376 4.02127L8.21447 2.40314C8.18858 2.34485 8.13125 2.31068 8.07142 2.31184ZM16.0723 2.31727C16.0125 2.31618 15.9551 2.35013 15.9291 2.40838L15.2077 4.02551C15.173 4.10318 15.2077 4.1936 15.2853 4.22826C15.363 4.2629 15.4534 4.22827 15.4881 4.1506L16.2095 2.53347C16.2441 2.4558 16.2095 2.36538 16.1318 2.33072C16.1124 2.32208 16.0922 2.31771 16.0723 2.31727ZM7.16768 2.79002C7.13821 2.78783 7.10784 2.79439 7.08022 2.81037C7.00657 2.85289 6.98151 2.94642 7.02403 3.02007L7.39647 3.66515C7.439 3.73881 7.53251 3.76386 7.60617 3.72133C7.67982 3.67881 7.70488 3.58529 7.66236 3.51163L7.28992 2.86656C7.26334 2.82052 7.21681 2.79345 7.16768 2.79002ZM16.9636 2.79002C16.9145 2.7933 16.868 2.82051 16.8415 2.86655L16.469 3.51162C16.4264 3.58528 16.4516 3.6788 16.5252 3.72132C16.5989 3.76385 16.6924 3.73879 16.7349 3.66514L17.1073 3.02006C17.1499 2.9464 17.1248 2.85288 17.0512 2.81036C17.0235 2.79442 16.9931 2.78797 16.9636 2.79002ZM6.29011 3.33736C6.26057 3.33846 6.23099 3.34794 6.20517 3.36665C6.13633 3.41659 6.12111 3.51221 6.17107 3.58106L7.21083 5.01439C7.26078 5.08324 7.35646 5.09846 7.42531 5.04853C7.49415 4.99859 7.50937 4.90297 7.45941 4.83412L6.41958 3.40079C6.38836 3.35776 6.33932 3.33568 6.29011 3.33736ZM17.8522 3.34517C17.803 3.34334 17.7539 3.36541 17.7227 3.40838L16.6809 4.84032C16.6309 4.9091 16.646 5.00476 16.7148 5.0548C16.7835 5.10483 16.8792 5.08977 16.9292 5.02102L17.9709 3.58908C18.021 3.5203 18.0058 3.42464 17.9371 3.3746C17.9113 3.35586 17.8817 3.34623 17.8522 3.34517ZM5.50569 3.99521C5.46651 3.99303 5.42652 4.00612 5.39491 4.03457C5.3317 4.09147 5.32662 4.18815 5.38353 4.25136L5.88192 4.80501C5.93882 4.86822 6.0355 4.8733 6.09871 4.81639C6.16192 4.75948 6.16701 4.66274 6.11009 4.59953L5.61177 4.04595C5.58332 4.01433 5.54489 3.99727 5.50569 3.99521ZM18.6267 3.99631C18.5876 3.9985 18.5491 4.01546 18.5207 4.04706L18.0223 4.60057C17.9654 4.66378 17.9704 4.76052 18.0336 4.81743C18.0968 4.87434 18.1935 4.86924 18.2504 4.80605L18.7489 4.25254C18.8058 4.18933 18.8007 4.09259 18.7375 4.03568C18.7059 4.00723 18.6659 3.99425 18.6267 3.99631ZM4.75388 4.71738C4.71469 4.71957 4.67632 4.73653 4.64787 4.76813C4.59096 4.83135 4.59605 4.92802 4.65924 4.98493L5.97531 6.16966C6.03852 6.22657 6.1352 6.22148 6.1921 6.15828C6.249 6.09507 6.24398 5.99839 6.18075 5.94149L4.86463 4.75675C4.83301 4.72831 4.79307 4.71532 4.75388 4.71738ZM19.3822 4.72256C19.343 4.72037 19.303 4.73343 19.2714 4.76185L17.9545 5.94566C17.8912 6.00252 17.886 6.0992 17.9429 6.16245C17.9998 6.2257 18.0965 6.23084 18.1598 6.17398L19.4767 4.99017C19.5399 4.93331 19.5451 4.83663 19.4882 4.77337C19.4598 4.74175 19.4214 4.72464 19.3822 4.72256ZM4.12868 5.52129C4.07946 5.51946 4.03039 5.54164 3.99915 5.58463C3.94916 5.65344 3.96432 5.74905 4.03314 5.79904L4.63575 6.23686C4.70455 6.28686 4.80016 6.27177 4.85015 6.20294C4.90015 6.13414 4.88502 6.03846 4.81623 5.98847L4.21363 5.55064C4.18784 5.5319 4.15821 5.52235 4.12868 5.52129ZM20.0068 5.52687C19.9773 5.52796 19.9477 5.53741 19.9219 5.55616L19.319 5.99359C19.2502 6.04353 19.2349 6.13922 19.2849 6.20806C19.3348 6.2769 19.4304 6.29206 19.4993 6.24213L20.1022 5.8047C20.171 5.75475 20.1862 5.65913 20.1363 5.59029C20.1051 5.54726 20.056 5.52518 20.0068 5.52687ZM3.54443 6.3788C3.4953 6.38208 3.44883 6.40929 3.42225 6.45533C3.37972 6.52898 3.40478 6.6225 3.47843 6.66503L5.01195 7.55042C5.0856 7.59295 5.17912 7.56789 5.22165 7.49423C5.26418 7.42058 5.23912 7.32706 5.16547 7.28453L3.63195 6.39914C3.60434 6.3832 3.5739 6.37676 3.54443 6.3788ZM20.5869 6.3788C20.5574 6.37661 20.527 6.38318 20.4994 6.39915L18.9658 7.28454C18.8922 7.32707 18.8671 7.42059 18.9097 7.49425C18.9522 7.5679 19.0457 7.59296 19.1194 7.55043L20.6529 6.66504C20.7266 6.62252 20.7517 6.529 20.7091 6.45534C20.6825 6.40931 20.636 6.38223 20.5869 6.3788ZM3.10269 7.29281C3.04287 7.29135 2.98549 7.3256 2.95951 7.38385C2.92486 7.46153 2.95949 7.55195 3.03716 7.5866L3.71749 7.89005C3.79516 7.9247 3.88559 7.89008 3.92023 7.8124C3.95488 7.73472 3.92019 7.6443 3.84252 7.60965L3.16226 7.3062C3.14285 7.29752 3.12263 7.29321 3.10269 7.29281ZM21.0316 7.29912C21.0117 7.29949 20.9914 7.30386 20.972 7.31251L20.2915 7.61543C20.2138 7.65005 20.1791 7.74041 20.2137 7.81811C20.2483 7.89581 20.3387 7.93056 20.4164 7.89597L21.0969 7.59297C21.1746 7.55839 21.2092 7.46799 21.1747 7.39029C21.1487 7.33202 21.0914 7.29793 21.0316 7.29912ZM2.70899 8.24812C2.64936 8.25312 2.59591 8.29295 2.57615 8.3536C2.54981 8.43447 2.59365 8.52079 2.67454 8.54714L4.35819 9.09574C4.43906 9.12208 4.52538 9.0782 4.55173 8.99735C4.57806 8.91649 4.53422 8.83016 4.45334 8.80382L2.76969 8.25521C2.74948 8.24861 2.72887 8.24644 2.70899 8.24812ZM21.4246 8.25469C21.4047 8.25286 21.3842 8.25505 21.3639 8.26176L19.6799 8.80918C19.599 8.83547 19.5551 8.92176 19.5814 9.00265C19.6077 9.08353 19.694 9.12747 19.7748 9.10117L21.4588 8.55376C21.5397 8.52746 21.5837 8.44117 21.5574 8.36029C21.5377 8.29962 21.4842 8.25975 21.4246 8.25469ZM2.46371 9.25093C2.39219 9.2502 2.32805 9.29984 2.31258 9.37264C2.29489 9.45583 2.34766 9.53703 2.43085 9.55472L3.15947 9.70956C3.24267 9.72725 3.32386 9.67447 3.34155 9.59129C3.35923 9.50809 3.30646 9.4269 3.22328 9.40921L2.49472 9.25437C2.48432 9.25218 2.47392 9.25093 2.46371 9.25093ZM21.6679 9.25239C21.6577 9.25247 21.6474 9.25385 21.637 9.25567L20.9084 9.41045C20.8252 9.42814 20.7724 9.50926 20.7901 9.59246C20.8078 9.67565 20.889 9.72846 20.9722 9.71079L21.7007 9.55601C21.7839 9.53833 21.8368 9.45713 21.8191 9.37394C21.8036 9.30114 21.7395 9.25178 21.6679 9.25239ZM2.27806 10.2596C2.20686 10.2664 2.14826 10.3223 2.14044 10.3963C2.13151 10.4809 2.19235 10.5562 2.27693 10.5651L4.03791 10.7513C4.12249 10.7603 4.19779 10.6993 4.20673 10.6148C4.21566 10.5302 4.15476 10.4549 4.07017 10.4459L2.3092 10.2598C2.29862 10.2587 2.28823 10.2587 2.27806 10.2596ZM21.8549 10.2729C21.8447 10.2718 21.8343 10.2718 21.8237 10.273L20.0625 10.4568C19.9779 10.4656 19.9169 10.5408 19.9258 10.6254C19.9346 10.71 20.0098 10.771 20.0944 10.7622L21.8556 10.5784C21.9401 10.5695 22.0011 10.4943 21.9923 10.4097C21.9846 10.3357 21.9261 10.2798 21.8549 10.2729ZM2.24824 11.2922C2.16319 11.2922 2.09473 11.3606 2.09473 11.4457C2.09473 11.5307 2.16319 11.5992 2.24824 11.5992H2.9931C3.07815 11.5992 3.14669 11.5307 3.14669 11.4457C3.14669 11.3606 3.07815 11.2922 2.9931 11.2922H2.24824ZM21.1382 11.2922C21.0532 11.2922 20.9847 11.3606 20.9847 11.4457C20.9847 11.5307 21.0532 11.5992 21.1382 11.5992H21.8831C21.9681 11.5992 22.0366 11.5307 22.0366 11.4457C22.0366 11.3606 21.9681 11.2922 21.8831 11.2922H21.1382ZM4.06812 12.1291C4.05794 12.128 4.04755 12.128 4.03697 12.1292L2.27573 12.313C2.19114 12.3218 2.13016 12.397 2.13898 12.4816C2.1478 12.5662 2.22301 12.6272 2.3076 12.6184L4.06884 12.4346C4.15344 12.4257 4.21441 12.3505 4.20559 12.2659C4.19786 12.1919 4.13931 12.136 4.06812 12.1291ZM20.0623 12.1399C19.9911 12.1467 19.9325 12.2026 19.9246 12.2766C19.9157 12.3612 19.9766 12.4365 20.0611 12.4454L21.8221 12.6316C21.9067 12.6406 21.982 12.5796 21.9909 12.4951C21.9999 12.4105 21.939 12.3352 21.8544 12.3262L20.0935 12.1401C20.0829 12.139 20.0724 12.139 20.0623 12.1399ZM3.19022 13.177C3.18 13.1771 3.16961 13.1781 3.15921 13.1803L2.43059 13.3351C2.34739 13.3528 2.29465 13.434 2.31232 13.5172C2.33001 13.6004 2.4112 13.6531 2.49439 13.6354L3.22302 13.4807C3.30622 13.463 3.35896 13.3819 3.34129 13.2987C3.32582 13.2259 3.26173 13.1764 3.19022 13.177ZM20.9409 13.1785C20.8694 13.1778 20.8053 13.2274 20.7898 13.3001C20.7721 13.3833 20.8248 13.4645 20.908 13.4822L21.6367 13.6371C21.7199 13.6548 21.8011 13.602 21.8187 13.5189C21.8364 13.4357 21.7836 13.3544 21.7005 13.3367L20.9719 13.1819C20.9615 13.1797 20.9511 13.1785 20.9409 13.1785ZM4.41716 13.7832C4.39728 13.7813 4.37676 13.7835 4.35653 13.7902L2.67249 14.3376C2.5916 14.3639 2.54767 14.4502 2.57396 14.5311C2.60026 14.612 2.68654 14.6559 2.76743 14.6296L4.45142 14.0822C4.5323 14.0559 4.5763 13.9696 4.55001 13.8888C4.53028 13.8281 4.47678 13.7882 4.41716 13.7832ZM19.7125 13.7886C19.6529 13.7936 19.5994 13.8334 19.5797 13.8941C19.5533 13.9749 19.5972 14.0613 19.678 14.0876L21.3617 14.6362C21.4426 14.6626 21.5289 14.6187 21.5552 14.5378C21.5816 14.457 21.5377 14.3706 21.4568 14.3443L19.7732 13.7957C19.753 13.7891 19.7324 13.7869 19.7125 13.7886ZM3.77453 14.9821C3.75458 14.9825 3.73439 14.9868 3.71497 14.9955L3.03445 15.2984C2.95675 15.333 2.92207 15.4234 2.95666 15.5011C2.99127 15.5788 3.08164 15.6135 3.15934 15.5789L3.83987 15.276C3.91756 15.2414 3.95224 15.151 3.91765 15.0733C3.89172 15.015 3.83436 14.981 3.77453 14.9821ZM20.3543 14.988C20.2945 14.9865 20.2371 15.0208 20.2111 15.079C20.1765 15.1567 20.2111 15.2471 20.2888 15.2818L20.9691 15.5852C21.0467 15.6199 21.1372 15.5852 21.1718 15.5076C21.2065 15.4299 21.1718 15.3395 21.0942 15.3048L20.4139 15.0014C20.3945 14.9927 20.3743 14.9884 20.3543 14.988ZM5.09947 15.3207C5.07 15.3185 5.03957 15.325 5.01195 15.341L3.47843 16.2264C3.40478 16.2689 3.37972 16.3624 3.42225 16.4361C3.46477 16.5098 3.5583 16.5348 3.63195 16.4923L5.16547 15.607C5.23912 15.5644 5.26417 15.4708 5.22165 15.3972C5.19506 15.3512 5.1486 15.3241 5.09947 15.3207ZM19.0319 15.3207C18.9828 15.3239 18.9362 15.3511 18.9097 15.3972C18.8671 15.4708 18.8922 15.5644 18.9658 15.607L20.4994 16.4923C20.573 16.5348 20.6666 16.5097 20.7091 16.4361C20.7517 16.3624 20.7266 16.2689 20.6529 16.2264L19.1194 15.341C19.0918 15.3251 19.0614 15.3186 19.0319 15.3207ZM4.71697 16.62C4.68743 16.621 4.65785 16.6306 4.63203 16.6493L4.02916 17.0867C3.96032 17.1367 3.94509 17.2323 3.99502 17.3011C4.04497 17.37 4.14059 17.3852 4.20943 17.3352L4.81237 16.8978C4.88121 16.8479 4.89644 16.7523 4.8465 16.6834C4.81528 16.6404 4.76619 16.6183 4.71697 16.62ZM19.4107 16.6251C19.3615 16.6233 19.3124 16.6455 19.2812 16.6885C19.2312 16.7573 19.2463 16.853 19.3152 16.9029L19.9178 17.3408C19.9866 17.3908 20.0822 17.3756 20.1322 17.3068C20.1822 17.238 20.167 17.1424 20.0983 17.0924L19.4956 16.6545C19.4699 16.6358 19.4402 16.6262 19.4107 16.6251ZM6.08239 16.6781C6.04321 16.6759 6.00324 16.689 5.97161 16.7174L4.65469 17.9012C4.59144 17.9581 4.5863 18.0548 4.64317 18.118C4.70002 18.1813 4.7967 18.1864 4.85996 18.1296L6.17688 16.9457C6.24013 16.8889 6.24527 16.7922 6.18841 16.729C6.15999 16.6973 6.12158 16.6802 6.08239 16.6781ZM18.0453 16.6824C18.0061 16.6846 17.9676 16.7015 17.9392 16.7331C17.8823 16.7963 17.8874 16.893 17.9506 16.9499L19.2666 18.1346C19.3299 18.1916 19.4266 18.1865 19.4835 18.1233C19.5404 18.0601 19.5353 17.9634 19.4721 17.9065L18.156 16.7217C18.1244 16.6933 18.0845 16.6803 18.0453 16.6824ZM7.33174 17.807C7.28252 17.8052 7.23341 17.8272 7.20214 17.8702L6.16045 19.3022C6.11041 19.3709 6.12547 19.4666 6.19422 19.5166C6.26299 19.5667 6.35866 19.5516 6.40869 19.4828L7.45038 18.0509C7.50041 17.9821 7.48536 17.8864 7.41661 17.8364C7.39082 17.8177 7.36126 17.808 7.33174 17.807ZM16.791 17.8134C16.7615 17.8145 16.7319 17.824 16.7061 17.8427C16.6372 17.8927 16.622 17.9883 16.6719 18.0571L17.7117 19.4905C17.7617 19.5593 17.8573 19.5745 17.9261 19.5246C17.995 19.4747 18.0102 19.379 17.9603 19.3102L16.9205 17.8769C16.8893 17.8338 16.8402 17.8118 16.791 17.8134ZM5.98698 18.0346C5.9478 18.0368 5.90936 18.0537 5.88091 18.0853L5.38252 18.6389C5.32561 18.7021 5.33065 18.7988 5.39387 18.8557C5.45707 18.9126 5.55375 18.9075 5.61066 18.8443L6.1091 18.2908C6.16602 18.2276 6.16092 18.1308 6.09772 18.0739C6.0661 18.0455 6.02618 18.0325 5.98698 18.0346ZM18.1434 18.0353C18.1042 18.0331 18.0643 18.0462 18.0327 18.0747C17.9695 18.1316 17.9644 18.2283 18.0213 18.2915L18.5196 18.8451C18.5765 18.9083 18.6732 18.9134 18.7364 18.8565C18.7996 18.7996 18.8047 18.7029 18.7478 18.6396L18.2494 18.0861C18.221 18.0544 18.1826 18.0374 18.1434 18.0353ZM8.7864 18.6494C8.72658 18.6479 8.66928 18.6822 8.64329 18.7404L7.92182 20.3576C7.88717 20.4352 7.9218 20.5257 7.99947 20.5603C8.07714 20.595 8.16757 20.5603 8.20222 20.4827L8.92369 18.8655C8.95834 18.7879 8.92371 18.6974 8.84603 18.6628C8.82663 18.6541 8.80635 18.6498 8.7864 18.6494ZM15.3352 18.6538C15.3152 18.6542 15.295 18.6585 15.2755 18.6672C15.1979 18.7017 15.1631 18.792 15.1976 18.8698L15.9168 20.4879C15.9514 20.5656 16.0418 20.6004 16.1195 20.5658C16.1972 20.5313 16.232 20.4409 16.1974 20.3632L15.4782 18.7451C15.4523 18.6868 15.395 18.6527 15.3352 18.6538ZM7.51864 19.1494C7.46952 19.1527 7.42304 19.1799 7.39647 19.2259L7.02403 19.871C6.98151 19.9446 7.00657 20.0382 7.08022 20.0807C7.15388 20.1232 7.2474 20.0982 7.28992 20.0245L7.66236 19.3794C7.70488 19.3058 7.67983 19.2122 7.60617 19.1697C7.57856 19.1538 7.54812 19.1473 7.51864 19.1494ZM16.6127 19.1494C16.5832 19.1472 16.5528 19.1538 16.5252 19.1697C16.4516 19.2123 16.4265 19.3058 16.469 19.3794L16.8415 20.0245C16.884 20.0982 16.9775 20.1232 17.0512 20.0807C17.1248 20.0382 17.1499 19.9446 17.1073 19.871L16.7349 19.2259C16.7083 19.1799 16.6618 19.1528 16.6127 19.1494ZM10.3925 19.1725C10.321 19.1718 10.2569 19.2214 10.2415 19.2941L9.87348 21.0263C9.85579 21.1095 9.90857 21.1907 9.99175 21.2084C10.0749 21.2261 10.1561 21.1733 10.1738 21.0901L10.5418 19.358C10.5595 19.2748 10.5067 19.1936 10.4235 19.1759C10.4131 19.1737 10.4027 19.1725 10.3925 19.1725ZM13.7333 19.1736C13.7231 19.1737 13.7128 19.1747 13.7024 19.1769C13.6192 19.1945 13.5664 19.2756 13.584 19.3588L13.9507 21.0912C13.9684 21.1744 14.0495 21.2273 14.1327 21.2096C14.216 21.192 14.2688 21.1108 14.2512 21.0276L13.8844 19.2953C13.8689 19.2225 13.8049 19.173 13.7333 19.1736ZM12.0657 19.3483C11.9806 19.3483 11.9121 19.4168 11.9121 19.5018V21.2726C11.9121 21.3577 11.9806 21.4261 12.0657 21.4261C12.1507 21.4261 12.2192 21.3577 12.2192 21.2726V19.5018C12.2192 19.4168 12.1507 19.3483 12.0657 19.3483ZM9.24762 19.9205C9.18799 19.9256 9.13449 19.9655 9.11477 20.0261L8.88453 20.7345C8.85823 20.8154 8.90218 20.9017 8.98306 20.928C9.06394 20.9543 9.15023 20.9103 9.17652 20.8294L9.40676 20.1211C9.43306 20.0402 9.38911 19.9539 9.30824 19.9276C9.28804 19.921 9.26749 19.9188 9.24762 19.9205ZM14.8825 19.9209C14.8626 19.9191 14.8421 19.9212 14.8219 19.9279C14.741 19.9542 14.697 20.0405 14.7233 20.1214L14.9535 20.8298C14.9798 20.9107 15.066 20.9546 15.1469 20.9283C15.2278 20.902 15.2718 20.8158 15.2455 20.7349L15.0153 20.0265C14.9956 19.9658 14.9421 19.9259 14.8825 19.9209ZM11.102 20.3154C11.0308 20.3223 10.9722 20.3782 10.9644 20.4522L10.8865 21.193C10.8776 21.2776 10.9386 21.3528 11.0232 21.3617C11.1078 21.3706 11.183 21.3097 11.1919 21.2251L11.2698 20.4843C11.2787 20.3997 11.2177 20.3245 11.1332 20.3156C11.1226 20.3145 11.1122 20.3145 11.102 20.3154ZM13.0231 20.3162C13.013 20.3151 13.0025 20.3151 12.9919 20.3163C12.9073 20.3251 12.8463 20.4003 12.8552 20.4849L12.9325 21.2258C12.9414 21.3104 13.0166 21.3713 13.1012 21.3625C13.1858 21.3537 13.2468 21.2785 13.2379 21.1939L13.1606 20.453C13.1529 20.379 13.0943 20.3231 13.0231 20.3162Z" fill="#F4F2F3"/>
<g opacity="0.409" filter="url(#filter1_f_84_3916)">
<path d="M19.2616 5.30469L10.8624 10.1847L5.55176 18.545L13.3207 12.7907L19.2616 5.30469Z" fill="black"/>
</g>
<path d="M13.2698 12.7062L10.8623 10.185L19.4026 4.43994L13.2698 12.7062Z" fill="#FF5150"/>
<path d="M13.2698 12.7063L10.8623 10.1851L4.72949 18.4513L13.2698 12.7063Z" fill="#F1F1F1"/>
<path opacity="0.243" d="M4.72949 18.4513L13.2698 12.7062L19.4026 4.43994L4.72949 18.4513Z" fill="black"/>
<defs>
<filter id="filter0_f_84_3916" x="0.196541" y="0.919197" width="23.7397" height="22.9243" filterUnits="userSpaceOnUse" color-interpolation-filters="sRGB">
<feFlood flood-opacity="0" result="BackgroundImageFix"/>
<feBlend mode="normal" in="SourceGraphic" in2="BackgroundImageFix" result="shape"/>
<feGaussianBlur stdDeviation="0.432003" result="effect1_foregroundBlur_84_3916"/>
</filter>
<filter id="filter1_f_84_3916" x="5.30618" y="5.05911" width="14.2011" height="13.7314" filterUnits="userSpaceOnUse" color-interpolation-filters="sRGB">
<feFlood flood-opacity="0" result="BackgroundImageFix"/>
<feBlend mode="normal" in="SourceGraphic" in2="BackgroundImageFix" result="shape"/>
<feGaussianBlur stdDeviation="0.122787" result="effect1_foregroundBlur_84_3916"/>
</filter>
<linearGradient id="paint0_linear_84_3916" x1="12.0661" y1="22.8702" x2="12.0661" y2="0.0204479" gradientUnits="userSpaceOnUse">
<stop stop-color="#BDBDBD"/>
<stop offset="1" stop-color="white"/>
</linearGradient>
<radialGradient id="paint1_radial_84_3916" cx="0" cy="0" r="1" gradientUnits="userSpaceOnUse" gradientTransform="translate(12.1133 9.91034) scale(11.4249 11.4249)">
<stop stop-color="#06C2E7"/>
<stop offset="0.25" stop-color="#0DB8EC"/>
<stop offset="0.5" stop-color="#12AEF1"/>
<stop offset="0.75" stop-color="#1F86F9"/>
<stop offset="1" stop-color="#107DDD"/>
</radialGradient>
</defs>
</svg>
