<svg width="26" height="25" viewBox="0 0 26 25" fill="none" xmlns="http://www.w3.org/2000/svg">
<g clip-path="url(#clip0_98_2060)">
<path d="M13.0004 24.4629C18.2593 24.4629 21.1815 24.4629 23.0962 22.5587C25.0057 20.6545 25.0057 17.7429 25.0057 12.4998C25.0057 7.25672 25.0057 4.34507 23.0962 2.44089C21.1815 0.541992 18.2593 0.541992 13.0004 0.541992C7.74149 0.541992 4.81929 0.541992 2.90457 2.44617C0.995117 4.35034 0.995117 7.26199 0.995117 12.5051C0.995117 17.7481 0.995117 20.6598 2.90457 22.564C4.81929 24.4629 7.74149 24.4629 13.0004 24.4629Z" fill="#EF3939"/>
<path d="M20.807 8.07977C19.6571 6.0701 17.7318 4.5035 15.3107 3.85471C10.5054 2.57295 5.56828 5.41075 4.28125 10.1949C3.63245 12.6002 4.03333 15.0424 5.20432 17.0362C5.22015 17.0626 5.23597 17.0943 5.25707 17.1206L9.4874 24.4261C10.1889 24.4472 10.9485 24.4525 11.7661 24.4525H12.9582C15.2949 24.4525 17.1727 24.4525 18.7076 24.2837C20.6223 24.0727 21.9938 23.6033 23.054 22.5483C24.5995 21.0081 24.8949 18.8033 24.9529 15.2323C22.4843 10.9703 20.8122 8.08504 20.807 8.07977Z" fill="url(#paint0_linear_98_2060)"/>
<path d="M19.3194 6.17564C15.8117 2.67322 10.1203 2.67322 6.60733 6.17564C3.09964 9.67806 3.09964 15.3537 6.60733 18.8508C10.115 22.3532 15.8065 22.3532 19.3194 18.8508C22.8324 15.3484 22.8324 9.67278 19.3194 6.17564ZM18.7814 10.2952C17.2992 12.864 15.817 15.4328 14.3348 18.0069C14.0605 18.4869 13.6596 18.7717 13.1111 18.8139C12.4992 18.8561 12.0139 18.5976 11.7027 18.0701C10.7638 16.4614 9.83546 14.842 8.90711 13.2279C8.34272 12.2469 7.77305 11.2658 7.20865 10.2794C6.63898 9.28773 7.2825 8.07982 8.42184 8.0218C9.02316 7.99015 9.48733 8.26971 9.79327 8.79191C10.21 9.50399 10.6214 10.2266 11.0381 10.944C11.3388 11.4609 11.6289 11.9831 11.9348 12.4895C12.3779 13.2332 13.0319 13.6499 13.9023 13.7027C15.1313 13.7765 16.2759 12.8851 16.4236 11.5822C16.4341 11.4873 16.4394 11.3871 16.4447 11.3396C16.4394 10.9176 16.3603 10.5589 16.1915 10.2266C15.7326 9.30883 16.2232 8.28026 17.2201 8.05872C18.0324 7.87938 18.8763 8.47542 18.9818 9.29828C19.0346 9.65169 18.9607 9.98399 18.7814 10.2952Z" fill="white"/>
</g>
<defs>
<linearGradient id="paint0_linear_98_2060" x1="456.893" y1="122.897" x2="1594.79" y2="2108.03" gradientUnits="userSpaceOnUse">
<stop stop-opacity="0.2"/>
<stop offset="0.7908" stop-opacity="0.05"/>
</linearGradient>
<clipPath id="clip0_98_2060">
<rect width="24.0527" height="24" fill="white" transform="translate(0.973633 0.5)"/>
</clipPath>
</defs>
</svg>
